G04 #@! TF.GenerationSoftware,KiCad,Pcbnew,(5.1.5)-3*
G04 #@! TF.CreationDate,2020-06-18T17:13:16-03:00*
G04 #@! TF.ProjectId,Energy_Meter,456e6572-6779-45f4-9d65-7465722e6b69,rev?*
G04 #@! TF.SameCoordinates,Original*
G04 #@! TF.FileFunction,Soldermask,Bot*
G04 #@! TF.FilePolarity,Negative*
%FSLAX46Y46*%
G04 Gerber Fmt 4.6, Leading zero omitted, Abs format (unit mm)*
G04 Created by KiCad (PCBNEW (5.1.5)-3) date 2020-06-18 17:13:16*
%MOMM*%
%LPD*%
G04 APERTURE LIST*
%ADD10C,0.100000*%
G04 APERTURE END LIST*
D10*
G36*
X82125880Y-133959776D02*
G01*
X82506593Y-134035504D01*
X82916249Y-134205189D01*
X83284929Y-134451534D01*
X83598466Y-134765071D01*
X83844811Y-135133751D01*
X84014496Y-135543407D01*
X84101000Y-135978296D01*
X84101000Y-136421704D01*
X84014496Y-136856593D01*
X83844811Y-137266249D01*
X83598466Y-137634929D01*
X83284929Y-137948466D01*
X82916249Y-138194811D01*
X82506593Y-138364496D01*
X82125880Y-138440224D01*
X82071705Y-138451000D01*
X81628295Y-138451000D01*
X81574120Y-138440224D01*
X81193407Y-138364496D01*
X80783751Y-138194811D01*
X80415071Y-137948466D01*
X80101534Y-137634929D01*
X79855189Y-137266249D01*
X79685504Y-136856593D01*
X79599000Y-136421704D01*
X79599000Y-135978296D01*
X79685504Y-135543407D01*
X79855189Y-135133751D01*
X80101534Y-134765071D01*
X80415071Y-134451534D01*
X80783751Y-134205189D01*
X81193407Y-134035504D01*
X81574120Y-133959776D01*
X81628295Y-133949000D01*
X82071705Y-133949000D01*
X82125880Y-133959776D01*
G37*
G36*
X147575880Y-133759776D02*
G01*
X147956593Y-133835504D01*
X148366249Y-134005189D01*
X148734929Y-134251534D01*
X149048466Y-134565071D01*
X149294811Y-134933751D01*
X149464496Y-135343407D01*
X149514995Y-135597287D01*
X149548490Y-135765674D01*
X149551000Y-135778296D01*
X149551000Y-136221704D01*
X149464496Y-136656593D01*
X149294811Y-137066249D01*
X149048466Y-137434929D01*
X148734929Y-137748466D01*
X148366249Y-137994811D01*
X147956593Y-138164496D01*
X147599176Y-138235590D01*
X147521705Y-138251000D01*
X147078295Y-138251000D01*
X147000824Y-138235590D01*
X146643407Y-138164496D01*
X146233751Y-137994811D01*
X145865071Y-137748466D01*
X145551534Y-137434929D01*
X145305189Y-137066249D01*
X145135504Y-136656593D01*
X145049000Y-136221704D01*
X145049000Y-135778296D01*
X145051511Y-135765674D01*
X145085005Y-135597287D01*
X145135504Y-135343407D01*
X145305189Y-134933751D01*
X145551534Y-134565071D01*
X145865071Y-134251534D01*
X146233751Y-134005189D01*
X146643407Y-133835504D01*
X147024120Y-133759776D01*
X147078295Y-133749000D01*
X147521705Y-133749000D01*
X147575880Y-133759776D01*
G37*
G36*
X124072547Y-133490326D02*
G01*
X124246156Y-133542990D01*
X124246158Y-133542991D01*
X124406155Y-133628511D01*
X124546397Y-133743603D01*
X124621817Y-133835504D01*
X124661489Y-133883844D01*
X124747010Y-134043843D01*
X124799674Y-134217452D01*
X124813000Y-134352756D01*
X124813000Y-134903243D01*
X124799674Y-135038548D01*
X124747010Y-135212157D01*
X124661489Y-135372156D01*
X124625729Y-135415729D01*
X124546397Y-135512397D01*
X124449729Y-135591729D01*
X124406156Y-135627489D01*
X124246157Y-135713010D01*
X124072548Y-135765674D01*
X123892000Y-135783456D01*
X123711453Y-135765674D01*
X123537844Y-135713010D01*
X123377845Y-135627489D01*
X123334272Y-135591729D01*
X123237604Y-135512397D01*
X123122513Y-135372157D01*
X123122512Y-135372155D01*
X123036990Y-135212157D01*
X122984326Y-135038548D01*
X122974005Y-134933751D01*
X122971000Y-134903245D01*
X122971000Y-134352756D01*
X122976750Y-134294378D01*
X122984326Y-134217453D01*
X123036990Y-134043844D01*
X123063291Y-133994639D01*
X123122511Y-133883845D01*
X123237603Y-133743603D01*
X123363388Y-133640375D01*
X123377844Y-133628511D01*
X123537843Y-133542990D01*
X123711452Y-133490326D01*
X123892000Y-133472544D01*
X124072547Y-133490326D01*
G37*
G36*
X129152547Y-133490326D02*
G01*
X129326156Y-133542990D01*
X129326158Y-133542991D01*
X129486155Y-133628511D01*
X129626397Y-133743603D01*
X129701817Y-133835504D01*
X129741489Y-133883844D01*
X129827010Y-134043843D01*
X129879674Y-134217452D01*
X129893000Y-134352756D01*
X129893000Y-134903243D01*
X129879674Y-135038548D01*
X129827010Y-135212157D01*
X129741489Y-135372156D01*
X129705729Y-135415729D01*
X129626397Y-135512397D01*
X129529729Y-135591729D01*
X129486156Y-135627489D01*
X129326157Y-135713010D01*
X129152548Y-135765674D01*
X128972000Y-135783456D01*
X128791453Y-135765674D01*
X128617844Y-135713010D01*
X128457845Y-135627489D01*
X128414272Y-135591729D01*
X128317604Y-135512397D01*
X128202513Y-135372157D01*
X128202512Y-135372155D01*
X128116990Y-135212157D01*
X128064326Y-135038548D01*
X128054005Y-134933751D01*
X128051000Y-134903245D01*
X128051000Y-134352756D01*
X128056750Y-134294378D01*
X128064326Y-134217453D01*
X128116990Y-134043844D01*
X128143291Y-133994639D01*
X128202511Y-133883845D01*
X128317603Y-133743603D01*
X128443388Y-133640375D01*
X128457844Y-133628511D01*
X128617843Y-133542990D01*
X128791452Y-133490326D01*
X128972000Y-133472544D01*
X129152547Y-133490326D01*
G37*
G36*
X126612547Y-133490326D02*
G01*
X126786156Y-133542990D01*
X126786158Y-133542991D01*
X126946155Y-133628511D01*
X127086397Y-133743603D01*
X127161817Y-133835504D01*
X127201489Y-133883844D01*
X127287010Y-134043843D01*
X127339674Y-134217452D01*
X127353000Y-134352756D01*
X127353000Y-134903243D01*
X127339674Y-135038548D01*
X127287010Y-135212157D01*
X127201489Y-135372156D01*
X127165729Y-135415729D01*
X127086397Y-135512397D01*
X126989729Y-135591729D01*
X126946156Y-135627489D01*
X126786157Y-135713010D01*
X126612548Y-135765674D01*
X126432000Y-135783456D01*
X126251453Y-135765674D01*
X126077844Y-135713010D01*
X125917845Y-135627489D01*
X125874272Y-135591729D01*
X125777604Y-135512397D01*
X125662513Y-135372157D01*
X125662512Y-135372155D01*
X125576990Y-135212157D01*
X125524326Y-135038548D01*
X125514005Y-134933751D01*
X125511000Y-134903245D01*
X125511000Y-134352756D01*
X125516750Y-134294378D01*
X125524326Y-134217453D01*
X125576990Y-134043844D01*
X125603291Y-133994639D01*
X125662511Y-133883845D01*
X125777603Y-133743603D01*
X125903388Y-133640375D01*
X125917844Y-133628511D01*
X126077843Y-133542990D01*
X126251452Y-133490326D01*
X126432000Y-133472544D01*
X126612547Y-133490326D01*
G37*
G36*
X122131561Y-133480966D02*
G01*
X122164383Y-133490923D01*
X122194632Y-133507092D01*
X122221148Y-133528852D01*
X122242908Y-133555368D01*
X122259077Y-133585617D01*
X122269034Y-133618439D01*
X122273000Y-133658713D01*
X122273000Y-135597287D01*
X122269034Y-135637561D01*
X122259077Y-135670383D01*
X122242908Y-135700632D01*
X122221148Y-135727148D01*
X122194632Y-135748908D01*
X122164383Y-135765077D01*
X122131561Y-135775034D01*
X122091287Y-135779000D01*
X120612713Y-135779000D01*
X120572439Y-135775034D01*
X120539617Y-135765077D01*
X120509368Y-135748908D01*
X120482852Y-135727148D01*
X120461092Y-135700632D01*
X120444923Y-135670383D01*
X120434966Y-135637561D01*
X120431000Y-135597287D01*
X120431000Y-133658713D01*
X120434966Y-133618439D01*
X120444923Y-133585617D01*
X120461092Y-133555368D01*
X120482852Y-133528852D01*
X120509368Y-133507092D01*
X120539617Y-133490923D01*
X120572439Y-133480966D01*
X120612713Y-133477000D01*
X122091287Y-133477000D01*
X122131561Y-133480966D01*
G37*
G36*
X94977512Y-122301927D02*
G01*
X95126812Y-122331624D01*
X95290784Y-122399544D01*
X95438354Y-122498147D01*
X95563853Y-122623646D01*
X95662456Y-122771216D01*
X95730376Y-122935188D01*
X95765000Y-123109259D01*
X95765000Y-123286741D01*
X95730376Y-123460812D01*
X95662456Y-123624784D01*
X95563853Y-123772354D01*
X95438354Y-123897853D01*
X95290784Y-123996456D01*
X95126812Y-124064376D01*
X94977512Y-124094073D01*
X94952742Y-124099000D01*
X94775258Y-124099000D01*
X94750488Y-124094073D01*
X94601188Y-124064376D01*
X94437216Y-123996456D01*
X94289646Y-123897853D01*
X94164147Y-123772354D01*
X94065544Y-123624784D01*
X93997624Y-123460812D01*
X93963000Y-123286741D01*
X93963000Y-123109259D01*
X93997624Y-122935188D01*
X94065544Y-122771216D01*
X94164147Y-122623646D01*
X94289646Y-122498147D01*
X94437216Y-122399544D01*
X94601188Y-122331624D01*
X94750488Y-122301927D01*
X94775258Y-122297000D01*
X94952742Y-122297000D01*
X94977512Y-122301927D01*
G37*
G36*
X87977512Y-122301927D02*
G01*
X88126812Y-122331624D01*
X88290784Y-122399544D01*
X88438354Y-122498147D01*
X88563853Y-122623646D01*
X88662456Y-122771216D01*
X88730376Y-122935188D01*
X88765000Y-123109259D01*
X88765000Y-123286741D01*
X88730376Y-123460812D01*
X88662456Y-123624784D01*
X88563853Y-123772354D01*
X88438354Y-123897853D01*
X88290784Y-123996456D01*
X88126812Y-124064376D01*
X87977512Y-124094073D01*
X87952742Y-124099000D01*
X87775258Y-124099000D01*
X87750488Y-124094073D01*
X87601188Y-124064376D01*
X87437216Y-123996456D01*
X87289646Y-123897853D01*
X87164147Y-123772354D01*
X87065544Y-123624784D01*
X86997624Y-123460812D01*
X86963000Y-123286741D01*
X86963000Y-123109259D01*
X86997624Y-122935188D01*
X87065544Y-122771216D01*
X87164147Y-122623646D01*
X87289646Y-122498147D01*
X87437216Y-122399544D01*
X87601188Y-122331624D01*
X87750488Y-122301927D01*
X87775258Y-122297000D01*
X87952742Y-122297000D01*
X87977512Y-122301927D01*
G37*
G36*
X140783642Y-117579781D02*
G01*
X140929414Y-117640162D01*
X140929416Y-117640163D01*
X141060608Y-117727822D01*
X141172178Y-117839392D01*
X141259837Y-117970584D01*
X141259838Y-117970586D01*
X141320219Y-118116358D01*
X141351000Y-118271107D01*
X141351000Y-118428893D01*
X141320219Y-118583642D01*
X141259838Y-118729414D01*
X141259837Y-118729416D01*
X141172178Y-118860608D01*
X141060608Y-118972178D01*
X140929416Y-119059837D01*
X140929415Y-119059838D01*
X140929414Y-119059838D01*
X140783642Y-119120219D01*
X140628893Y-119151000D01*
X140471107Y-119151000D01*
X140316358Y-119120219D01*
X140170586Y-119059838D01*
X140170585Y-119059838D01*
X140170584Y-119059837D01*
X140039392Y-118972178D01*
X139927822Y-118860608D01*
X139840163Y-118729416D01*
X139840162Y-118729414D01*
X139779781Y-118583642D01*
X139749000Y-118428893D01*
X139749000Y-118271107D01*
X139779781Y-118116358D01*
X139840162Y-117970586D01*
X139840163Y-117970584D01*
X139927822Y-117839392D01*
X140039392Y-117727822D01*
X140170584Y-117640163D01*
X140170586Y-117640162D01*
X140316358Y-117579781D01*
X140471107Y-117549000D01*
X140628893Y-117549000D01*
X140783642Y-117579781D01*
G37*
G36*
X140783642Y-112699781D02*
G01*
X140929414Y-112760162D01*
X140929416Y-112760163D01*
X141060608Y-112847822D01*
X141172178Y-112959392D01*
X141259837Y-113090584D01*
X141259838Y-113090586D01*
X141320219Y-113236358D01*
X141351000Y-113391107D01*
X141351000Y-113548893D01*
X141320219Y-113703642D01*
X141259838Y-113849414D01*
X141259837Y-113849416D01*
X141172178Y-113980608D01*
X141060608Y-114092178D01*
X140929416Y-114179837D01*
X140929415Y-114179838D01*
X140929414Y-114179838D01*
X140783642Y-114240219D01*
X140628893Y-114271000D01*
X140471107Y-114271000D01*
X140316358Y-114240219D01*
X140170586Y-114179838D01*
X140170585Y-114179838D01*
X140170584Y-114179837D01*
X140039392Y-114092178D01*
X139927822Y-113980608D01*
X139840163Y-113849416D01*
X139840162Y-113849414D01*
X139779781Y-113703642D01*
X139749000Y-113548893D01*
X139749000Y-113391107D01*
X139779781Y-113236358D01*
X139840162Y-113090586D01*
X139840163Y-113090584D01*
X139927822Y-112959392D01*
X140039392Y-112847822D01*
X140170584Y-112760163D01*
X140170586Y-112760162D01*
X140316358Y-112699781D01*
X140471107Y-112669000D01*
X140628893Y-112669000D01*
X140783642Y-112699781D01*
G37*
G36*
X87977512Y-109855927D02*
G01*
X88126812Y-109885624D01*
X88290784Y-109953544D01*
X88438354Y-110052147D01*
X88563853Y-110177646D01*
X88662456Y-110325216D01*
X88730376Y-110489188D01*
X88765000Y-110663259D01*
X88765000Y-110840741D01*
X88730376Y-111014812D01*
X88662456Y-111178784D01*
X88563853Y-111326354D01*
X88438354Y-111451853D01*
X88290784Y-111550456D01*
X88126812Y-111618376D01*
X87977512Y-111648073D01*
X87952742Y-111653000D01*
X87775258Y-111653000D01*
X87750488Y-111648073D01*
X87601188Y-111618376D01*
X87437216Y-111550456D01*
X87289646Y-111451853D01*
X87164147Y-111326354D01*
X87065544Y-111178784D01*
X86997624Y-111014812D01*
X86963000Y-110840741D01*
X86963000Y-110663259D01*
X86997624Y-110489188D01*
X87065544Y-110325216D01*
X87164147Y-110177646D01*
X87289646Y-110052147D01*
X87437216Y-109953544D01*
X87601188Y-109885624D01*
X87750488Y-109855927D01*
X87775258Y-109851000D01*
X87952742Y-109851000D01*
X87977512Y-109855927D01*
G37*
G36*
X94977512Y-109855927D02*
G01*
X95126812Y-109885624D01*
X95290784Y-109953544D01*
X95438354Y-110052147D01*
X95563853Y-110177646D01*
X95662456Y-110325216D01*
X95730376Y-110489188D01*
X95765000Y-110663259D01*
X95765000Y-110840741D01*
X95730376Y-111014812D01*
X95662456Y-111178784D01*
X95563853Y-111326354D01*
X95438354Y-111451853D01*
X95290784Y-111550456D01*
X95126812Y-111618376D01*
X94977512Y-111648073D01*
X94952742Y-111653000D01*
X94775258Y-111653000D01*
X94750488Y-111648073D01*
X94601188Y-111618376D01*
X94437216Y-111550456D01*
X94289646Y-111451853D01*
X94164147Y-111326354D01*
X94065544Y-111178784D01*
X93997624Y-111014812D01*
X93963000Y-110840741D01*
X93963000Y-110663259D01*
X93997624Y-110489188D01*
X94065544Y-110325216D01*
X94164147Y-110177646D01*
X94289646Y-110052147D01*
X94437216Y-109953544D01*
X94601188Y-109885624D01*
X94750488Y-109855927D01*
X94775258Y-109851000D01*
X94952742Y-109851000D01*
X94977512Y-109855927D01*
G37*
G36*
X146401000Y-101751000D02*
G01*
X144599000Y-101751000D01*
X144599000Y-99949000D01*
X146401000Y-99949000D01*
X146401000Y-101751000D01*
G37*
G36*
X145613512Y-97413927D02*
G01*
X145762812Y-97443624D01*
X145926784Y-97511544D01*
X146074354Y-97610147D01*
X146199853Y-97735646D01*
X146298456Y-97883216D01*
X146366376Y-98047188D01*
X146401000Y-98221259D01*
X146401000Y-98398741D01*
X146366376Y-98572812D01*
X146298456Y-98736784D01*
X146199853Y-98884354D01*
X146074354Y-99009853D01*
X145926784Y-99108456D01*
X145762812Y-99176376D01*
X145613512Y-99206073D01*
X145588742Y-99211000D01*
X145411258Y-99211000D01*
X145386488Y-99206073D01*
X145237188Y-99176376D01*
X145073216Y-99108456D01*
X144925646Y-99009853D01*
X144800147Y-98884354D01*
X144701544Y-98736784D01*
X144633624Y-98572812D01*
X144599000Y-98398741D01*
X144599000Y-98221259D01*
X144633624Y-98047188D01*
X144701544Y-97883216D01*
X144800147Y-97735646D01*
X144925646Y-97610147D01*
X145073216Y-97511544D01*
X145237188Y-97443624D01*
X145386488Y-97413927D01*
X145411258Y-97409000D01*
X145588742Y-97409000D01*
X145613512Y-97413927D01*
G37*
G36*
X87977512Y-97155927D02*
G01*
X88126812Y-97185624D01*
X88290784Y-97253544D01*
X88438354Y-97352147D01*
X88563853Y-97477646D01*
X88662456Y-97625216D01*
X88730376Y-97789188D01*
X88765000Y-97963259D01*
X88765000Y-98140741D01*
X88730376Y-98314812D01*
X88662456Y-98478784D01*
X88563853Y-98626354D01*
X88438354Y-98751853D01*
X88290784Y-98850456D01*
X88126812Y-98918376D01*
X87977512Y-98948073D01*
X87952742Y-98953000D01*
X87775258Y-98953000D01*
X87750488Y-98948073D01*
X87601188Y-98918376D01*
X87437216Y-98850456D01*
X87289646Y-98751853D01*
X87164147Y-98626354D01*
X87065544Y-98478784D01*
X86997624Y-98314812D01*
X86963000Y-98140741D01*
X86963000Y-97963259D01*
X86997624Y-97789188D01*
X87065544Y-97625216D01*
X87164147Y-97477646D01*
X87289646Y-97352147D01*
X87437216Y-97253544D01*
X87601188Y-97185624D01*
X87750488Y-97155927D01*
X87775258Y-97151000D01*
X87952742Y-97151000D01*
X87977512Y-97155927D01*
G37*
G36*
X94977512Y-97155927D02*
G01*
X95126812Y-97185624D01*
X95290784Y-97253544D01*
X95438354Y-97352147D01*
X95563853Y-97477646D01*
X95662456Y-97625216D01*
X95730376Y-97789188D01*
X95765000Y-97963259D01*
X95765000Y-98140741D01*
X95730376Y-98314812D01*
X95662456Y-98478784D01*
X95563853Y-98626354D01*
X95438354Y-98751853D01*
X95290784Y-98850456D01*
X95126812Y-98918376D01*
X94977512Y-98948073D01*
X94952742Y-98953000D01*
X94775258Y-98953000D01*
X94750488Y-98948073D01*
X94601188Y-98918376D01*
X94437216Y-98850456D01*
X94289646Y-98751853D01*
X94164147Y-98626354D01*
X94065544Y-98478784D01*
X93997624Y-98314812D01*
X93963000Y-98140741D01*
X93963000Y-97963259D01*
X93997624Y-97789188D01*
X94065544Y-97625216D01*
X94164147Y-97477646D01*
X94289646Y-97352147D01*
X94437216Y-97253544D01*
X94601188Y-97185624D01*
X94750488Y-97155927D01*
X94775258Y-97151000D01*
X94952742Y-97151000D01*
X94977512Y-97155927D01*
G37*
G36*
X145613512Y-94873927D02*
G01*
X145762812Y-94903624D01*
X145926784Y-94971544D01*
X146074354Y-95070147D01*
X146199853Y-95195646D01*
X146298456Y-95343216D01*
X146366376Y-95507188D01*
X146401000Y-95681259D01*
X146401000Y-95858741D01*
X146366376Y-96032812D01*
X146298456Y-96196784D01*
X146199853Y-96344354D01*
X146074354Y-96469853D01*
X145926784Y-96568456D01*
X145762812Y-96636376D01*
X145613512Y-96666073D01*
X145588742Y-96671000D01*
X145411258Y-96671000D01*
X145386488Y-96666073D01*
X145237188Y-96636376D01*
X145073216Y-96568456D01*
X144925646Y-96469853D01*
X144800147Y-96344354D01*
X144701544Y-96196784D01*
X144633624Y-96032812D01*
X144599000Y-95858741D01*
X144599000Y-95681259D01*
X144633624Y-95507188D01*
X144701544Y-95343216D01*
X144800147Y-95195646D01*
X144925646Y-95070147D01*
X145073216Y-94971544D01*
X145237188Y-94903624D01*
X145386488Y-94873927D01*
X145411258Y-94869000D01*
X145588742Y-94869000D01*
X145613512Y-94873927D01*
G37*
G36*
X145613512Y-92333927D02*
G01*
X145762812Y-92363624D01*
X145926784Y-92431544D01*
X146074354Y-92530147D01*
X146199853Y-92655646D01*
X146298456Y-92803216D01*
X146366376Y-92967188D01*
X146401000Y-93141259D01*
X146401000Y-93318741D01*
X146366376Y-93492812D01*
X146298456Y-93656784D01*
X146199853Y-93804354D01*
X146074354Y-93929853D01*
X145926784Y-94028456D01*
X145762812Y-94096376D01*
X145613512Y-94126073D01*
X145588742Y-94131000D01*
X145411258Y-94131000D01*
X145386488Y-94126073D01*
X145237188Y-94096376D01*
X145073216Y-94028456D01*
X144925646Y-93929853D01*
X144800147Y-93804354D01*
X144701544Y-93656784D01*
X144633624Y-93492812D01*
X144599000Y-93318741D01*
X144599000Y-93141259D01*
X144633624Y-92967188D01*
X144701544Y-92803216D01*
X144800147Y-92655646D01*
X144925646Y-92530147D01*
X145073216Y-92431544D01*
X145237188Y-92363624D01*
X145386488Y-92333927D01*
X145411258Y-92329000D01*
X145588742Y-92329000D01*
X145613512Y-92333927D01*
G37*
G36*
X145613512Y-89793927D02*
G01*
X145762812Y-89823624D01*
X145926784Y-89891544D01*
X146074354Y-89990147D01*
X146199853Y-90115646D01*
X146298456Y-90263216D01*
X146366376Y-90427188D01*
X146401000Y-90601259D01*
X146401000Y-90778741D01*
X146366376Y-90952812D01*
X146298456Y-91116784D01*
X146199853Y-91264354D01*
X146074354Y-91389853D01*
X145926784Y-91488456D01*
X145762812Y-91556376D01*
X145613512Y-91586073D01*
X145588742Y-91591000D01*
X145411258Y-91591000D01*
X145386488Y-91586073D01*
X145237188Y-91556376D01*
X145073216Y-91488456D01*
X144925646Y-91389853D01*
X144800147Y-91264354D01*
X144701544Y-91116784D01*
X144633624Y-90952812D01*
X144599000Y-90778741D01*
X144599000Y-90601259D01*
X144633624Y-90427188D01*
X144701544Y-90263216D01*
X144800147Y-90115646D01*
X144925646Y-89990147D01*
X145073216Y-89891544D01*
X145237188Y-89823624D01*
X145386488Y-89793927D01*
X145411258Y-89789000D01*
X145588742Y-89789000D01*
X145613512Y-89793927D01*
G37*
G36*
X140150564Y-80725389D02*
G01*
X140341833Y-80804615D01*
X140341835Y-80804616D01*
X140513973Y-80919635D01*
X140660365Y-81066027D01*
X140775385Y-81238167D01*
X140854611Y-81429436D01*
X140895000Y-81632484D01*
X140895000Y-81839516D01*
X140854611Y-82042564D01*
X140775385Y-82233833D01*
X140775384Y-82233835D01*
X140660365Y-82405973D01*
X140513973Y-82552365D01*
X140341835Y-82667384D01*
X140341834Y-82667385D01*
X140341833Y-82667385D01*
X140150564Y-82746611D01*
X139947516Y-82787000D01*
X139740484Y-82787000D01*
X139537436Y-82746611D01*
X139346167Y-82667385D01*
X139346166Y-82667385D01*
X139346165Y-82667384D01*
X139174027Y-82552365D01*
X139027635Y-82405973D01*
X138912616Y-82233835D01*
X138912615Y-82233833D01*
X138833389Y-82042564D01*
X138793000Y-81839516D01*
X138793000Y-81632484D01*
X138833389Y-81429436D01*
X138912615Y-81238167D01*
X139027635Y-81066027D01*
X139174027Y-80919635D01*
X139346165Y-80804616D01*
X139346167Y-80804615D01*
X139537436Y-80725389D01*
X139740484Y-80685000D01*
X139947516Y-80685000D01*
X140150564Y-80725389D01*
G37*
G36*
X146650564Y-80725389D02*
G01*
X146841833Y-80804615D01*
X146841835Y-80804616D01*
X147013973Y-80919635D01*
X147160365Y-81066027D01*
X147275385Y-81238167D01*
X147354611Y-81429436D01*
X147395000Y-81632484D01*
X147395000Y-81839516D01*
X147354611Y-82042564D01*
X147275385Y-82233833D01*
X147275384Y-82233835D01*
X147160365Y-82405973D01*
X147013973Y-82552365D01*
X146841835Y-82667384D01*
X146841834Y-82667385D01*
X146841833Y-82667385D01*
X146650564Y-82746611D01*
X146447516Y-82787000D01*
X146240484Y-82787000D01*
X146037436Y-82746611D01*
X145846167Y-82667385D01*
X145846166Y-82667385D01*
X145846165Y-82667384D01*
X145674027Y-82552365D01*
X145527635Y-82405973D01*
X145412616Y-82233835D01*
X145412615Y-82233833D01*
X145333389Y-82042564D01*
X145293000Y-81839516D01*
X145293000Y-81632484D01*
X145333389Y-81429436D01*
X145412615Y-81238167D01*
X145527635Y-81066027D01*
X145674027Y-80919635D01*
X145846165Y-80804616D01*
X145846167Y-80804615D01*
X146037436Y-80725389D01*
X146240484Y-80685000D01*
X146447516Y-80685000D01*
X146650564Y-80725389D01*
G37*
G36*
X140150564Y-76225389D02*
G01*
X140341833Y-76304615D01*
X140341835Y-76304616D01*
X140513973Y-76419635D01*
X140660365Y-76566027D01*
X140775385Y-76738167D01*
X140854611Y-76929436D01*
X140895000Y-77132484D01*
X140895000Y-77339516D01*
X140854611Y-77542564D01*
X140775385Y-77733833D01*
X140775384Y-77733835D01*
X140660365Y-77905973D01*
X140513973Y-78052365D01*
X140341835Y-78167384D01*
X140341834Y-78167385D01*
X140341833Y-78167385D01*
X140150564Y-78246611D01*
X139947516Y-78287000D01*
X139740484Y-78287000D01*
X139537436Y-78246611D01*
X139346167Y-78167385D01*
X139346166Y-78167385D01*
X139346165Y-78167384D01*
X139174027Y-78052365D01*
X139027635Y-77905973D01*
X138912616Y-77733835D01*
X138912615Y-77733833D01*
X138833389Y-77542564D01*
X138793000Y-77339516D01*
X138793000Y-77132484D01*
X138833389Y-76929436D01*
X138912615Y-76738167D01*
X139027635Y-76566027D01*
X139174027Y-76419635D01*
X139346165Y-76304616D01*
X139346167Y-76304615D01*
X139537436Y-76225389D01*
X139740484Y-76185000D01*
X139947516Y-76185000D01*
X140150564Y-76225389D01*
G37*
G36*
X146650564Y-76225389D02*
G01*
X146841833Y-76304615D01*
X146841835Y-76304616D01*
X147013973Y-76419635D01*
X147160365Y-76566027D01*
X147275385Y-76738167D01*
X147354611Y-76929436D01*
X147395000Y-77132484D01*
X147395000Y-77339516D01*
X147354611Y-77542564D01*
X147275385Y-77733833D01*
X147275384Y-77733835D01*
X147160365Y-77905973D01*
X147013973Y-78052365D01*
X146841835Y-78167384D01*
X146841834Y-78167385D01*
X146841833Y-78167385D01*
X146650564Y-78246611D01*
X146447516Y-78287000D01*
X146240484Y-78287000D01*
X146037436Y-78246611D01*
X145846167Y-78167385D01*
X145846166Y-78167385D01*
X145846165Y-78167384D01*
X145674027Y-78052365D01*
X145527635Y-77905973D01*
X145412616Y-77733835D01*
X145412615Y-77733833D01*
X145333389Y-77542564D01*
X145293000Y-77339516D01*
X145293000Y-77132484D01*
X145333389Y-76929436D01*
X145412615Y-76738167D01*
X145527635Y-76566027D01*
X145674027Y-76419635D01*
X145846165Y-76304616D01*
X145846167Y-76304615D01*
X146037436Y-76225389D01*
X146240484Y-76185000D01*
X146447516Y-76185000D01*
X146650564Y-76225389D01*
G37*
G36*
X146850564Y-71325389D02*
G01*
X147041833Y-71404615D01*
X147041835Y-71404616D01*
X147213973Y-71519635D01*
X147360365Y-71666027D01*
X147475385Y-71838167D01*
X147554611Y-72029436D01*
X147595000Y-72232484D01*
X147595000Y-72439516D01*
X147554611Y-72642564D01*
X147515555Y-72736854D01*
X147475384Y-72833835D01*
X147360365Y-73005973D01*
X147213973Y-73152365D01*
X147041835Y-73267384D01*
X147041834Y-73267385D01*
X147041833Y-73267385D01*
X146850564Y-73346611D01*
X146647516Y-73387000D01*
X146440484Y-73387000D01*
X146237436Y-73346611D01*
X146046167Y-73267385D01*
X146046166Y-73267385D01*
X146046165Y-73267384D01*
X145874027Y-73152365D01*
X145727635Y-73005973D01*
X145612616Y-72833835D01*
X145572445Y-72736854D01*
X145533389Y-72642564D01*
X145493000Y-72439516D01*
X145493000Y-72232484D01*
X145533389Y-72029436D01*
X145612615Y-71838167D01*
X145727635Y-71666027D01*
X145874027Y-71519635D01*
X146046165Y-71404616D01*
X146046167Y-71404615D01*
X146237436Y-71325389D01*
X146440484Y-71285000D01*
X146647516Y-71285000D01*
X146850564Y-71325389D01*
G37*
G36*
X140350564Y-71325389D02*
G01*
X140541833Y-71404615D01*
X140541835Y-71404616D01*
X140713973Y-71519635D01*
X140860365Y-71666027D01*
X140975385Y-71838167D01*
X141054611Y-72029436D01*
X141095000Y-72232484D01*
X141095000Y-72439516D01*
X141054611Y-72642564D01*
X141015555Y-72736854D01*
X140975384Y-72833835D01*
X140860365Y-73005973D01*
X140713973Y-73152365D01*
X140541835Y-73267384D01*
X140541834Y-73267385D01*
X140541833Y-73267385D01*
X140350564Y-73346611D01*
X140147516Y-73387000D01*
X139940484Y-73387000D01*
X139737436Y-73346611D01*
X139546167Y-73267385D01*
X139546166Y-73267385D01*
X139546165Y-73267384D01*
X139374027Y-73152365D01*
X139227635Y-73005973D01*
X139112616Y-72833835D01*
X139072445Y-72736854D01*
X139033389Y-72642564D01*
X138993000Y-72439516D01*
X138993000Y-72232484D01*
X139033389Y-72029436D01*
X139112615Y-71838167D01*
X139227635Y-71666027D01*
X139374027Y-71519635D01*
X139546165Y-71404616D01*
X139546167Y-71404615D01*
X139737436Y-71325389D01*
X139940484Y-71285000D01*
X140147516Y-71285000D01*
X140350564Y-71325389D01*
G37*
G36*
X85253561Y-70918966D02*
G01*
X85286383Y-70928923D01*
X85316632Y-70945092D01*
X85343148Y-70966852D01*
X85364908Y-70993368D01*
X85381077Y-71023617D01*
X85391034Y-71056439D01*
X85395000Y-71096713D01*
X85395000Y-72575287D01*
X85391034Y-72615561D01*
X85381077Y-72648383D01*
X85364908Y-72678632D01*
X85343148Y-72705148D01*
X85316632Y-72726908D01*
X85286383Y-72743077D01*
X85253561Y-72753034D01*
X85213287Y-72757000D01*
X83274713Y-72757000D01*
X83234439Y-72753034D01*
X83201617Y-72743077D01*
X83171368Y-72726908D01*
X83144852Y-72705148D01*
X83123092Y-72678632D01*
X83106923Y-72648383D01*
X83096966Y-72615561D01*
X83093000Y-72575287D01*
X83093000Y-71096713D01*
X83096966Y-71056439D01*
X83106923Y-71023617D01*
X83123092Y-70993368D01*
X83144852Y-70966852D01*
X83171368Y-70945092D01*
X83201617Y-70928923D01*
X83234439Y-70918966D01*
X83274713Y-70915000D01*
X85213287Y-70915000D01*
X85253561Y-70918966D01*
G37*
G36*
X84564345Y-68379442D02*
G01*
X84654548Y-68388326D01*
X84828157Y-68440990D01*
X84988156Y-68526511D01*
X85031729Y-68562271D01*
X85128397Y-68641603D01*
X85207729Y-68738271D01*
X85243489Y-68781844D01*
X85329010Y-68941843D01*
X85381674Y-69115452D01*
X85399456Y-69296000D01*
X85381674Y-69476548D01*
X85329010Y-69650157D01*
X85243489Y-69810156D01*
X85207729Y-69853729D01*
X85128397Y-69950397D01*
X85031729Y-70029729D01*
X84988156Y-70065489D01*
X84828157Y-70151010D01*
X84654548Y-70203674D01*
X84564345Y-70212558D01*
X84519245Y-70217000D01*
X83968755Y-70217000D01*
X83923655Y-70212558D01*
X83833452Y-70203674D01*
X83659843Y-70151010D01*
X83499844Y-70065489D01*
X83456271Y-70029729D01*
X83359603Y-69950397D01*
X83280271Y-69853729D01*
X83244511Y-69810156D01*
X83158990Y-69650157D01*
X83106326Y-69476548D01*
X83088544Y-69296000D01*
X83106326Y-69115452D01*
X83158990Y-68941843D01*
X83244511Y-68781844D01*
X83280271Y-68738271D01*
X83359603Y-68641603D01*
X83456271Y-68562271D01*
X83499844Y-68526511D01*
X83659843Y-68440990D01*
X83833452Y-68388326D01*
X83923655Y-68379442D01*
X83968755Y-68375000D01*
X84519245Y-68375000D01*
X84564345Y-68379442D01*
G37*
G36*
X146850564Y-66825389D02*
G01*
X147041833Y-66904615D01*
X147041835Y-66904616D01*
X147213973Y-67019635D01*
X147360365Y-67166027D01*
X147475385Y-67338167D01*
X147554611Y-67529436D01*
X147595000Y-67732484D01*
X147595000Y-67939516D01*
X147554611Y-68142564D01*
X147475385Y-68333833D01*
X147475384Y-68333835D01*
X147360365Y-68505973D01*
X147213973Y-68652365D01*
X147041835Y-68767384D01*
X147041834Y-68767385D01*
X147041833Y-68767385D01*
X146850564Y-68846611D01*
X146647516Y-68887000D01*
X146440484Y-68887000D01*
X146237436Y-68846611D01*
X146046167Y-68767385D01*
X146046166Y-68767385D01*
X146046165Y-68767384D01*
X145874027Y-68652365D01*
X145727635Y-68505973D01*
X145612616Y-68333835D01*
X145612615Y-68333833D01*
X145533389Y-68142564D01*
X145493000Y-67939516D01*
X145493000Y-67732484D01*
X145533389Y-67529436D01*
X145612615Y-67338167D01*
X145727635Y-67166027D01*
X145874027Y-67019635D01*
X146046165Y-66904616D01*
X146046167Y-66904615D01*
X146237436Y-66825389D01*
X146440484Y-66785000D01*
X146647516Y-66785000D01*
X146850564Y-66825389D01*
G37*
G36*
X140350564Y-66825389D02*
G01*
X140541833Y-66904615D01*
X140541835Y-66904616D01*
X140713973Y-67019635D01*
X140860365Y-67166027D01*
X140975385Y-67338167D01*
X141054611Y-67529436D01*
X141095000Y-67732484D01*
X141095000Y-67939516D01*
X141054611Y-68142564D01*
X140975385Y-68333833D01*
X140975384Y-68333835D01*
X140860365Y-68505973D01*
X140713973Y-68652365D01*
X140541835Y-68767384D01*
X140541834Y-68767385D01*
X140541833Y-68767385D01*
X140350564Y-68846611D01*
X140147516Y-68887000D01*
X139940484Y-68887000D01*
X139737436Y-68846611D01*
X139546167Y-68767385D01*
X139546166Y-68767385D01*
X139546165Y-68767384D01*
X139374027Y-68652365D01*
X139227635Y-68505973D01*
X139112616Y-68333835D01*
X139112615Y-68333833D01*
X139033389Y-68142564D01*
X138993000Y-67939516D01*
X138993000Y-67732484D01*
X139033389Y-67529436D01*
X139112615Y-67338167D01*
X139227635Y-67166027D01*
X139374027Y-67019635D01*
X139546165Y-66904616D01*
X139546167Y-66904615D01*
X139737436Y-66825389D01*
X139940484Y-66785000D01*
X140147516Y-66785000D01*
X140350564Y-66825389D01*
G37*
G36*
X147225880Y-56209776D02*
G01*
X147606593Y-56285504D01*
X148016249Y-56455189D01*
X148384929Y-56701534D01*
X148698466Y-57015071D01*
X148944811Y-57383751D01*
X149114496Y-57793407D01*
X149201000Y-58228296D01*
X149201000Y-58671704D01*
X149114496Y-59106593D01*
X148944811Y-59516249D01*
X148698466Y-59884929D01*
X148384929Y-60198466D01*
X148016249Y-60444811D01*
X147606593Y-60614496D01*
X147225880Y-60690224D01*
X147171705Y-60701000D01*
X146728295Y-60701000D01*
X146674120Y-60690224D01*
X146293407Y-60614496D01*
X145883751Y-60444811D01*
X145515071Y-60198466D01*
X145201534Y-59884929D01*
X144955189Y-59516249D01*
X144785504Y-59106593D01*
X144699000Y-58671704D01*
X144699000Y-58228296D01*
X144785504Y-57793407D01*
X144955189Y-57383751D01*
X145201534Y-57015071D01*
X145515071Y-56701534D01*
X145883751Y-56455189D01*
X146293407Y-56285504D01*
X146674120Y-56209776D01*
X146728295Y-56199000D01*
X147171705Y-56199000D01*
X147225880Y-56209776D01*
G37*
G36*
X82225880Y-55909776D02*
G01*
X82606593Y-55985504D01*
X83016249Y-56155189D01*
X83384929Y-56401534D01*
X83698466Y-56715071D01*
X83944811Y-57083751D01*
X84114496Y-57493407D01*
X84201000Y-57928296D01*
X84201000Y-58371704D01*
X84114496Y-58806593D01*
X83944811Y-59216249D01*
X83698466Y-59584929D01*
X83384929Y-59898466D01*
X83016249Y-60144811D01*
X82606593Y-60314496D01*
X82225880Y-60390224D01*
X82171705Y-60401000D01*
X81728295Y-60401000D01*
X81674120Y-60390224D01*
X81293407Y-60314496D01*
X80883751Y-60144811D01*
X80515071Y-59898466D01*
X80201534Y-59584929D01*
X79955189Y-59216249D01*
X79785504Y-58806593D01*
X79699000Y-58371704D01*
X79699000Y-57928296D01*
X79785504Y-57493407D01*
X79955189Y-57083751D01*
X80201534Y-56715071D01*
X80515071Y-56401534D01*
X80883751Y-56155189D01*
X81293407Y-55985504D01*
X81674120Y-55909776D01*
X81728295Y-55899000D01*
X82171705Y-55899000D01*
X82225880Y-55909776D01*
G37*
M02*
