M48
; DRILL file {KiCad (5.1.5)-3} date 18/6/2020 17:09:20
; FORMAT={-:-/ absolute / inch / decimal}
; #@! TF.CreationDate,2020-06-18T17:09:20-03:00
; #@! TF.GenerationSoftware,Kicad,Pcbnew,(5.1.5)-3
; #@! TF.FileFunction,Plated,1,2,PTH
FMAT,2
INCH
T1C0.0157
T2C0.0315
T3C0.0394
T4C0.0433
T5C0.0472
T6C0.0866
%
G90
G05
T1
X3.437Y-2.502
X3.8031Y-2.9764
X3.8878Y-2.5925
X3.935Y-3.8031
X3.9429Y-4.0079
X3.9449Y-3.5374
X3.9626Y-4.6673
X3.9685Y-4.2165
X3.9724Y-4.4587
X3.9764Y-4.811
X4.0965Y-3.3366
X4.126Y-2.9843
X4.1516Y-4.5492
X4.1811Y-3.8071
X4.185Y-4.3839
X4.2382Y-5.248
X4.2461Y-4.5335
X4.2972Y-3.6299
X4.3386Y-4.5906
X4.3425Y-4.4547
X4.4528Y-3.6339
X4.5669Y-3.6713
X4.6181Y-4.3327
X4.6181Y-4.3327
X4.6319Y-4.0315
X4.6339Y-3.9823
X4.6378Y-3.9311
X4.6614Y-4.0768
X4.7028Y-4.1083
X4.7933Y-3.5945
X4.8465Y-4.1299
X4.8504Y-4.9331
X4.9429Y-4.3189
X4.9921Y-4.3839
X5.0197Y-4.5138
X5.0374Y-3.3386
X5.0768Y-3.0315
X5.1083Y-4.876
X5.1457Y-3.0118
X5.2008Y-4.9449
X5.2146Y-3.7776
X5.2382Y-3.8228
X5.2539Y-2.9843
X5.6535Y-4.1043
X3.1575Y-5.3622
X3.1765Y-5.3163
X3.1765Y-5.4081
X3.2224Y-5.2972
X3.2224Y-5.4272
X3.2684Y-5.3163
X3.2684Y-5.4081
X3.2874Y-5.3622
X5.7205Y-2.3012
X5.7395Y-2.2552
X5.7395Y-2.3471
X5.7854Y-2.2362
X5.7854Y-2.3661
X5.8314Y-2.2552
X5.8314Y-2.3471
X5.8504Y-2.3012
X5.7343Y-5.3543
X5.7533Y-5.3084
X5.7533Y-5.4003
X5.7992Y-5.2894
X5.7992Y-5.4193
X5.8451Y-5.3084
X5.8451Y-5.4003
X5.8642Y-5.3543
X3.1614Y-2.2894
X3.1804Y-2.2434
X3.1804Y-2.3353
X3.2264Y-2.2244
X3.2264Y-2.3543
X3.2723Y-2.2434
X3.2723Y-2.3353
X3.2913Y-2.2894
T2
X5.5335Y-4.4673
X5.5335Y-4.6594
T3
X5.7283Y-3.5705
X5.7283Y-3.6705
X5.7283Y-3.7705
X5.7283Y-3.8705
X5.7283Y-3.9705
T4
X5.5135Y-2.6707
X5.5135Y-2.8479
X5.7694Y-2.6707
X5.7694Y-2.8479
X5.5057Y-3.0408
X5.5057Y-3.218
X5.7616Y-3.0408
X5.7616Y-3.218
T5
X3.3167Y-2.7282
X3.3167Y-2.8282
X4.7776Y-5.3003
X4.8776Y-5.3003
X4.9776Y-5.3003
X5.0776Y-5.3003
T6
X3.2224Y-5.3622
X5.7854Y-2.3012
X5.7992Y-5.3543
X3.2264Y-2.2894
T0
M30
