G04 #@! TF.GenerationSoftware,KiCad,Pcbnew,(5.1.5)-3*
G04 #@! TF.CreationDate,2020-06-18T17:13:16-03:00*
G04 #@! TF.ProjectId,Energy_Meter,456e6572-6779-45f4-9d65-7465722e6b69,rev?*
G04 #@! TF.SameCoordinates,Original*
G04 #@! TF.FileFunction,Copper,L2,Bot*
G04 #@! TF.FilePolarity,Positive*
%FSLAX46Y46*%
G04 Gerber Fmt 4.6, Leading zero omitted, Abs format (unit mm)*
G04 Created by KiCad (PCBNEW (5.1.5)-3) date 2020-06-18 17:13:16*
%MOMM*%
%LPD*%
G04 APERTURE LIST*
%ADD10C,1.500000*%
%ADD11C,0.100000*%
%ADD12O,2.200000X1.740000*%
%ADD13O,1.740000X2.200000*%
%ADD14R,1.700000X1.700000*%
%ADD15O,1.700000X1.700000*%
%ADD16C,2.000000*%
%ADD17C,4.400000*%
%ADD18C,0.700000*%
%ADD19C,0.800000*%
%ADD20C,0.250000*%
%ADD21C,0.300000*%
%ADD22C,0.254000*%
G04 APERTURE END LIST*
D10*
X140550000Y-118350000D03*
X140550000Y-113470000D03*
G04 #@! TA.AperFunction,ComponentPad*
D11*
G36*
X85118505Y-70967204D02*
G01*
X85142773Y-70970804D01*
X85166572Y-70976765D01*
X85189671Y-70985030D01*
X85211850Y-70995520D01*
X85232893Y-71008132D01*
X85252599Y-71022747D01*
X85270777Y-71039223D01*
X85287253Y-71057401D01*
X85301868Y-71077107D01*
X85314480Y-71098150D01*
X85324970Y-71120329D01*
X85333235Y-71143428D01*
X85339196Y-71167227D01*
X85342796Y-71191495D01*
X85344000Y-71215999D01*
X85344000Y-72456001D01*
X85342796Y-72480505D01*
X85339196Y-72504773D01*
X85333235Y-72528572D01*
X85324970Y-72551671D01*
X85314480Y-72573850D01*
X85301868Y-72594893D01*
X85287253Y-72614599D01*
X85270777Y-72632777D01*
X85252599Y-72649253D01*
X85232893Y-72663868D01*
X85211850Y-72676480D01*
X85189671Y-72686970D01*
X85166572Y-72695235D01*
X85142773Y-72701196D01*
X85118505Y-72704796D01*
X85094001Y-72706000D01*
X83393999Y-72706000D01*
X83369495Y-72704796D01*
X83345227Y-72701196D01*
X83321428Y-72695235D01*
X83298329Y-72686970D01*
X83276150Y-72676480D01*
X83255107Y-72663868D01*
X83235401Y-72649253D01*
X83217223Y-72632777D01*
X83200747Y-72614599D01*
X83186132Y-72594893D01*
X83173520Y-72573850D01*
X83163030Y-72551671D01*
X83154765Y-72528572D01*
X83148804Y-72504773D01*
X83145204Y-72480505D01*
X83144000Y-72456001D01*
X83144000Y-71215999D01*
X83145204Y-71191495D01*
X83148804Y-71167227D01*
X83154765Y-71143428D01*
X83163030Y-71120329D01*
X83173520Y-71098150D01*
X83186132Y-71077107D01*
X83200747Y-71057401D01*
X83217223Y-71039223D01*
X83235401Y-71022747D01*
X83255107Y-71008132D01*
X83276150Y-70995520D01*
X83298329Y-70985030D01*
X83321428Y-70976765D01*
X83345227Y-70970804D01*
X83369495Y-70967204D01*
X83393999Y-70966000D01*
X85094001Y-70966000D01*
X85118505Y-70967204D01*
G37*
G04 #@! TD.AperFunction*
D12*
X84244000Y-69296000D03*
G04 #@! TA.AperFunction,ComponentPad*
D11*
G36*
X121996505Y-133529204D02*
G01*
X122020773Y-133532804D01*
X122044572Y-133538765D01*
X122067671Y-133547030D01*
X122089850Y-133557520D01*
X122110893Y-133570132D01*
X122130599Y-133584747D01*
X122148777Y-133601223D01*
X122165253Y-133619401D01*
X122179868Y-133639107D01*
X122192480Y-133660150D01*
X122202970Y-133682329D01*
X122211235Y-133705428D01*
X122217196Y-133729227D01*
X122220796Y-133753495D01*
X122222000Y-133777999D01*
X122222000Y-135478001D01*
X122220796Y-135502505D01*
X122217196Y-135526773D01*
X122211235Y-135550572D01*
X122202970Y-135573671D01*
X122192480Y-135595850D01*
X122179868Y-135616893D01*
X122165253Y-135636599D01*
X122148777Y-135654777D01*
X122130599Y-135671253D01*
X122110893Y-135685868D01*
X122089850Y-135698480D01*
X122067671Y-135708970D01*
X122044572Y-135717235D01*
X122020773Y-135723196D01*
X121996505Y-135726796D01*
X121972001Y-135728000D01*
X120731999Y-135728000D01*
X120707495Y-135726796D01*
X120683227Y-135723196D01*
X120659428Y-135717235D01*
X120636329Y-135708970D01*
X120614150Y-135698480D01*
X120593107Y-135685868D01*
X120573401Y-135671253D01*
X120555223Y-135654777D01*
X120538747Y-135636599D01*
X120524132Y-135616893D01*
X120511520Y-135595850D01*
X120501030Y-135573671D01*
X120492765Y-135550572D01*
X120486804Y-135526773D01*
X120483204Y-135502505D01*
X120482000Y-135478001D01*
X120482000Y-133777999D01*
X120483204Y-133753495D01*
X120486804Y-133729227D01*
X120492765Y-133705428D01*
X120501030Y-133682329D01*
X120511520Y-133660150D01*
X120524132Y-133639107D01*
X120538747Y-133619401D01*
X120555223Y-133601223D01*
X120573401Y-133584747D01*
X120593107Y-133570132D01*
X120614150Y-133557520D01*
X120636329Y-133547030D01*
X120659428Y-133538765D01*
X120683227Y-133532804D01*
X120707495Y-133529204D01*
X120731999Y-133528000D01*
X121972001Y-133528000D01*
X121996505Y-133529204D01*
G37*
G04 #@! TD.AperFunction*
D13*
X123892000Y-134628000D03*
X126432000Y-134628000D03*
X128972000Y-134628000D03*
D14*
X145500000Y-100850000D03*
D15*
X145500000Y-98310000D03*
X145500000Y-95770000D03*
X145500000Y-93230000D03*
X145500000Y-90690000D03*
D16*
X140044000Y-72336000D03*
X140044000Y-67836000D03*
X146544000Y-72336000D03*
X146544000Y-67836000D03*
X146344000Y-77236000D03*
X146344000Y-81736000D03*
X139844000Y-77236000D03*
X139844000Y-81736000D03*
D17*
X81950000Y-58150000D03*
D18*
X83600000Y-58150000D03*
X83116726Y-59316726D03*
X81950000Y-59800000D03*
X80783274Y-59316726D03*
X80300000Y-58150000D03*
X80783274Y-56983274D03*
X81950000Y-56500000D03*
X83116726Y-56983274D03*
D17*
X146950000Y-58450000D03*
D18*
X148600000Y-58450000D03*
X148116726Y-59616726D03*
X146950000Y-60100000D03*
X145783274Y-59616726D03*
X145300000Y-58450000D03*
X145783274Y-57283274D03*
X146950000Y-56800000D03*
X148116726Y-57283274D03*
X148466726Y-134833274D03*
X147300000Y-134350000D03*
X146133274Y-134833274D03*
X145650000Y-136000000D03*
X146133274Y-137166726D03*
X147300000Y-137650000D03*
X148466726Y-137166726D03*
X148950000Y-136000000D03*
D17*
X147300000Y-136000000D03*
D18*
X83016726Y-135033274D03*
X81850000Y-134550000D03*
X80683274Y-135033274D03*
X80200000Y-136200000D03*
X80683274Y-137366726D03*
X81850000Y-137850000D03*
X83016726Y-137366726D03*
X83500000Y-136200000D03*
D17*
X81850000Y-136200000D03*
D19*
X101000000Y-122200000D03*
X87300000Y-63550000D03*
X99950000Y-96600000D03*
X100800000Y-107100000D03*
X100200000Y-89850000D03*
X96600000Y-75600000D03*
X125550000Y-109700000D03*
X132100000Y-125600000D03*
X117800000Y-99850000D03*
X106200000Y-96700000D03*
X117700000Y-101150000D03*
X100150000Y-101800000D03*
X126800000Y-111350000D03*
X129750000Y-123850000D03*
X127500000Y-114650000D03*
X123200000Y-125300000D03*
X117650000Y-102400000D03*
X106300000Y-111350000D03*
X118400000Y-103550000D03*
X107850000Y-115150000D03*
X117300000Y-110050000D03*
X117300000Y-110050000D03*
X119450000Y-104350000D03*
X123100000Y-104900000D03*
X107650000Y-133300000D03*
X133050000Y-97100000D03*
X109150000Y-92200000D03*
X132450000Y-95950000D03*
X113100000Y-92300000D03*
X121750000Y-91300000D03*
X116000000Y-93250000D03*
X128950000Y-77000000D03*
X130700000Y-76500000D03*
X133450000Y-75800000D03*
X127950000Y-84800000D03*
X104800000Y-75800000D03*
X143600000Y-104250000D03*
X110300000Y-113150000D03*
X100900000Y-113250000D03*
X100650000Y-118550000D03*
X110200000Y-116600000D03*
X105450000Y-115550000D03*
X98750000Y-65850000D03*
X104050000Y-84750000D03*
D20*
X101000000Y-127652554D02*
X105150000Y-131802554D01*
X101000000Y-122200000D02*
X101000000Y-127652554D01*
X105150000Y-131802554D02*
X105150000Y-135100000D01*
X105150000Y-135100000D02*
X106450000Y-136400000D01*
X106450000Y-136400000D02*
X114700000Y-136400000D01*
X116472000Y-134628000D02*
X121352000Y-134628000D01*
X114700000Y-136400000D02*
X116472000Y-134628000D01*
D21*
X84244000Y-66606000D02*
X84244000Y-69296000D01*
X87300000Y-63550000D02*
X84244000Y-66606000D01*
X99550001Y-96999999D02*
X99550001Y-100149999D01*
X99950000Y-96600000D02*
X99550001Y-96999999D01*
X99550001Y-100149999D02*
X98900000Y-100800000D01*
X98900000Y-100800000D02*
X98900000Y-105200000D01*
X98900000Y-105200000D02*
X100800000Y-107100000D01*
X100200000Y-96350000D02*
X99950000Y-96600000D01*
X100200000Y-89850000D02*
X100200000Y-96350000D01*
X85644000Y-69296000D02*
X84244000Y-69296000D01*
X90861685Y-69296000D02*
X85644000Y-69296000D01*
X96600000Y-75034315D02*
X90861685Y-69296000D01*
X96600000Y-75600000D02*
X96600000Y-75034315D01*
D20*
X125550000Y-109700000D02*
X127000000Y-109700000D01*
X127000000Y-109700000D02*
X132100000Y-114800000D01*
X132100000Y-114800000D02*
X132100000Y-125600000D01*
X117800000Y-99850000D02*
X109350000Y-99850000D01*
X109350000Y-99850000D02*
X106200000Y-96700000D01*
X100800000Y-101150000D02*
X100150000Y-101800000D01*
X117700000Y-101150000D02*
X100800000Y-101150000D01*
X126800000Y-111915685D02*
X129900000Y-115015685D01*
X126800000Y-111350000D02*
X126800000Y-111915685D01*
X129900000Y-115015685D02*
X129900000Y-123700000D01*
X129900000Y-123700000D02*
X129750000Y-123850000D01*
X127500000Y-114650000D02*
X123200000Y-118950000D01*
X123200000Y-118950000D02*
X123200000Y-125300000D01*
X117650000Y-102400000D02*
X116400000Y-102400000D01*
X116400000Y-102400000D02*
X115300000Y-103500000D01*
X115300000Y-103500000D02*
X115300000Y-108650000D01*
X115300000Y-108650000D02*
X112600000Y-111350000D01*
X112600000Y-111350000D02*
X106300000Y-111350000D01*
X118400000Y-103550000D02*
X118400000Y-107100000D01*
X118400000Y-107100000D02*
X110350000Y-115150000D01*
X110350000Y-115150000D02*
X107850000Y-115150000D01*
X119450000Y-107900000D02*
X117300000Y-110050000D01*
X119450000Y-104350000D02*
X119450000Y-107900000D01*
X123100000Y-105465685D02*
X107650000Y-120915685D01*
X123100000Y-104900000D02*
X123100000Y-105465685D01*
X107650000Y-120915685D02*
X107650000Y-133300000D01*
D21*
X133050000Y-97100000D02*
X114050000Y-97100000D01*
X114050000Y-97100000D02*
X109150000Y-92200000D01*
X132450000Y-95950000D02*
X131900000Y-95400000D01*
X131900000Y-95400000D02*
X116200000Y-95400000D01*
X116200000Y-95400000D02*
X113100000Y-92300000D01*
X121750000Y-91300000D02*
X117950000Y-91300000D01*
X117950000Y-91300000D02*
X116000000Y-93250000D01*
X145180000Y-93230000D02*
X145500000Y-93230000D01*
X128950000Y-77000000D02*
X145180000Y-93230000D01*
X144890000Y-90690000D02*
X145500000Y-90690000D01*
X130700000Y-76500000D02*
X144890000Y-90690000D01*
X140044000Y-69206000D02*
X140044000Y-67836000D01*
X133450000Y-75800000D02*
X140044000Y-69206000D01*
X127384315Y-84800000D02*
X124084315Y-81500000D01*
X127950000Y-84800000D02*
X127384315Y-84800000D01*
X124084315Y-81500000D02*
X106450000Y-81500000D01*
X106450000Y-81500000D02*
X104800000Y-79850000D01*
X104800000Y-79850000D02*
X104800000Y-75800000D01*
X144929787Y-77236000D02*
X139844000Y-77236000D01*
X146344000Y-77236000D02*
X144929787Y-77236000D01*
X148200000Y-79092000D02*
X146344000Y-77236000D01*
X148200000Y-103750000D02*
X148200000Y-79092000D01*
X143600000Y-104250000D02*
X147700000Y-104250000D01*
X147700000Y-104250000D02*
X148200000Y-103750000D01*
X110300000Y-113150000D02*
X101000000Y-113150000D01*
X101000000Y-113150000D02*
X100900000Y-113250000D01*
D20*
X100650000Y-118550000D02*
X102600000Y-116600000D01*
X105450000Y-115550000D02*
X105450000Y-116115685D01*
X105450000Y-116115685D02*
X105450000Y-116600000D01*
X102600000Y-116600000D02*
X105450000Y-116600000D01*
X105450000Y-116600000D02*
X110200000Y-116600000D01*
D21*
X98750000Y-65850000D02*
X103050000Y-70150000D01*
X103050000Y-70150000D02*
X103050000Y-83750000D01*
X103050000Y-83750000D02*
X104050000Y-84750000D01*
D22*
G36*
X150473000Y-139273000D02*
G01*
X78324000Y-139273000D01*
X78324000Y-135920777D01*
X79015000Y-135920777D01*
X79015000Y-136479223D01*
X79123948Y-137026939D01*
X79337656Y-137542876D01*
X79647912Y-138007207D01*
X80042793Y-138402088D01*
X80507124Y-138712344D01*
X81023061Y-138926052D01*
X81570777Y-139035000D01*
X82129223Y-139035000D01*
X82676939Y-138926052D01*
X83192876Y-138712344D01*
X83657207Y-138402088D01*
X84052088Y-138007207D01*
X84362344Y-137542876D01*
X84576052Y-137026939D01*
X84685000Y-136479223D01*
X84685000Y-135920777D01*
X84646655Y-135728000D01*
X119843928Y-135728000D01*
X119856188Y-135852482D01*
X119892498Y-135972180D01*
X119951463Y-136082494D01*
X120030815Y-136179185D01*
X120127506Y-136258537D01*
X120237820Y-136317502D01*
X120357518Y-136353812D01*
X120482000Y-136366072D01*
X121066250Y-136363000D01*
X121225000Y-136204250D01*
X121225000Y-134755000D01*
X120005750Y-134755000D01*
X119847000Y-134913750D01*
X119843928Y-135728000D01*
X84646655Y-135728000D01*
X84576052Y-135373061D01*
X84362344Y-134857124D01*
X84052088Y-134392793D01*
X83657207Y-133997912D01*
X83192876Y-133687656D01*
X82676939Y-133473948D01*
X82129223Y-133365000D01*
X81570777Y-133365000D01*
X81023061Y-133473948D01*
X80507124Y-133687656D01*
X80042793Y-133997912D01*
X79647912Y-134392793D01*
X79337656Y-134857124D01*
X79123948Y-135373061D01*
X79015000Y-135920777D01*
X78324000Y-135920777D01*
X78324000Y-123051740D01*
X86379000Y-123051740D01*
X86379000Y-123344260D01*
X86436068Y-123631158D01*
X86548010Y-123901411D01*
X86710525Y-124144632D01*
X86917368Y-124351475D01*
X87160589Y-124513990D01*
X87430842Y-124625932D01*
X87717740Y-124683000D01*
X88010260Y-124683000D01*
X88297158Y-124625932D01*
X88567411Y-124513990D01*
X88810632Y-124351475D01*
X89017475Y-124144632D01*
X89179990Y-123901411D01*
X89291932Y-123631158D01*
X89349000Y-123344260D01*
X89349000Y-123051740D01*
X93379000Y-123051740D01*
X93379000Y-123344260D01*
X93436068Y-123631158D01*
X93548010Y-123901411D01*
X93710525Y-124144632D01*
X93917368Y-124351475D01*
X94160589Y-124513990D01*
X94430842Y-124625932D01*
X94717740Y-124683000D01*
X95010260Y-124683000D01*
X95297158Y-124625932D01*
X95567411Y-124513990D01*
X95810632Y-124351475D01*
X96017475Y-124144632D01*
X96179990Y-123901411D01*
X96291932Y-123631158D01*
X96349000Y-123344260D01*
X96349000Y-123051740D01*
X96291932Y-122764842D01*
X96179990Y-122494589D01*
X96017475Y-122251368D01*
X95810632Y-122044525D01*
X95567411Y-121882010D01*
X95297158Y-121770068D01*
X95010260Y-121713000D01*
X94717740Y-121713000D01*
X94430842Y-121770068D01*
X94160589Y-121882010D01*
X93917368Y-122044525D01*
X93710525Y-122251368D01*
X93548010Y-122494589D01*
X93436068Y-122764842D01*
X93379000Y-123051740D01*
X89349000Y-123051740D01*
X89291932Y-122764842D01*
X89179990Y-122494589D01*
X89017475Y-122251368D01*
X88810632Y-122044525D01*
X88567411Y-121882010D01*
X88297158Y-121770068D01*
X88010260Y-121713000D01*
X87717740Y-121713000D01*
X87430842Y-121770068D01*
X87160589Y-121882010D01*
X86917368Y-122044525D01*
X86710525Y-122251368D01*
X86548010Y-122494589D01*
X86436068Y-122764842D01*
X86379000Y-123051740D01*
X78324000Y-123051740D01*
X78324000Y-110605740D01*
X86379000Y-110605740D01*
X86379000Y-110898260D01*
X86436068Y-111185158D01*
X86548010Y-111455411D01*
X86710525Y-111698632D01*
X86917368Y-111905475D01*
X87160589Y-112067990D01*
X87430842Y-112179932D01*
X87717740Y-112237000D01*
X88010260Y-112237000D01*
X88297158Y-112179932D01*
X88567411Y-112067990D01*
X88810632Y-111905475D01*
X89017475Y-111698632D01*
X89179990Y-111455411D01*
X89291932Y-111185158D01*
X89349000Y-110898260D01*
X89349000Y-110605740D01*
X93379000Y-110605740D01*
X93379000Y-110898260D01*
X93436068Y-111185158D01*
X93548010Y-111455411D01*
X93710525Y-111698632D01*
X93917368Y-111905475D01*
X94160589Y-112067990D01*
X94430842Y-112179932D01*
X94717740Y-112237000D01*
X95010260Y-112237000D01*
X95297158Y-112179932D01*
X95567411Y-112067990D01*
X95810632Y-111905475D01*
X96017475Y-111698632D01*
X96179990Y-111455411D01*
X96291932Y-111185158D01*
X96349000Y-110898260D01*
X96349000Y-110605740D01*
X96291932Y-110318842D01*
X96179990Y-110048589D01*
X96017475Y-109805368D01*
X95810632Y-109598525D01*
X95567411Y-109436010D01*
X95297158Y-109324068D01*
X95010260Y-109267000D01*
X94717740Y-109267000D01*
X94430842Y-109324068D01*
X94160589Y-109436010D01*
X93917368Y-109598525D01*
X93710525Y-109805368D01*
X93548010Y-110048589D01*
X93436068Y-110318842D01*
X93379000Y-110605740D01*
X89349000Y-110605740D01*
X89291932Y-110318842D01*
X89179990Y-110048589D01*
X89017475Y-109805368D01*
X88810632Y-109598525D01*
X88567411Y-109436010D01*
X88297158Y-109324068D01*
X88010260Y-109267000D01*
X87717740Y-109267000D01*
X87430842Y-109324068D01*
X87160589Y-109436010D01*
X86917368Y-109598525D01*
X86710525Y-109805368D01*
X86548010Y-110048589D01*
X86436068Y-110318842D01*
X86379000Y-110605740D01*
X78324000Y-110605740D01*
X78324000Y-101698061D01*
X99115000Y-101698061D01*
X99115000Y-101901939D01*
X99154774Y-102101898D01*
X99232795Y-102290256D01*
X99346063Y-102459774D01*
X99490226Y-102603937D01*
X99659744Y-102717205D01*
X99848102Y-102795226D01*
X100048061Y-102835000D01*
X100251939Y-102835000D01*
X100451898Y-102795226D01*
X100640256Y-102717205D01*
X100809774Y-102603937D01*
X100953937Y-102459774D01*
X101067205Y-102290256D01*
X101145226Y-102101898D01*
X101183397Y-101910000D01*
X115815198Y-101910000D01*
X114789002Y-102936196D01*
X114759999Y-102959999D01*
X114709735Y-103021246D01*
X114665026Y-103075724D01*
X114619979Y-103160000D01*
X114594454Y-103207754D01*
X114550997Y-103351015D01*
X114540000Y-103462668D01*
X114540000Y-103462678D01*
X114536324Y-103500000D01*
X114540000Y-103537323D01*
X114540001Y-108335197D01*
X112285199Y-110590000D01*
X107003711Y-110590000D01*
X106959774Y-110546063D01*
X106790256Y-110432795D01*
X106601898Y-110354774D01*
X106401939Y-110315000D01*
X106198061Y-110315000D01*
X105998102Y-110354774D01*
X105809744Y-110432795D01*
X105640226Y-110546063D01*
X105496063Y-110690226D01*
X105382795Y-110859744D01*
X105304774Y-111048102D01*
X105265000Y-111248061D01*
X105265000Y-111451939D01*
X105304774Y-111651898D01*
X105382795Y-111840256D01*
X105496063Y-112009774D01*
X105640226Y-112153937D01*
X105809744Y-112267205D01*
X105998102Y-112345226D01*
X106097513Y-112365000D01*
X101438454Y-112365000D01*
X101390256Y-112332795D01*
X101201898Y-112254774D01*
X101001939Y-112215000D01*
X100798061Y-112215000D01*
X100598102Y-112254774D01*
X100409744Y-112332795D01*
X100240226Y-112446063D01*
X100096063Y-112590226D01*
X99982795Y-112759744D01*
X99904774Y-112948102D01*
X99865000Y-113148061D01*
X99865000Y-113351939D01*
X99904774Y-113551898D01*
X99982795Y-113740256D01*
X100096063Y-113909774D01*
X100240226Y-114053937D01*
X100409744Y-114167205D01*
X100598102Y-114245226D01*
X100798061Y-114285000D01*
X101001939Y-114285000D01*
X101201898Y-114245226D01*
X101390256Y-114167205D01*
X101559774Y-114053937D01*
X101678711Y-113935000D01*
X109621289Y-113935000D01*
X109640226Y-113953937D01*
X109809744Y-114067205D01*
X109998102Y-114145226D01*
X110198061Y-114185000D01*
X110240199Y-114185000D01*
X110035199Y-114390000D01*
X108553711Y-114390000D01*
X108509774Y-114346063D01*
X108340256Y-114232795D01*
X108151898Y-114154774D01*
X107951939Y-114115000D01*
X107748061Y-114115000D01*
X107548102Y-114154774D01*
X107359744Y-114232795D01*
X107190226Y-114346063D01*
X107046063Y-114490226D01*
X106932795Y-114659744D01*
X106854774Y-114848102D01*
X106815000Y-115048061D01*
X106815000Y-115251939D01*
X106854774Y-115451898D01*
X106932795Y-115640256D01*
X107046063Y-115809774D01*
X107076289Y-115840000D01*
X106447593Y-115840000D01*
X106485000Y-115651939D01*
X106485000Y-115448061D01*
X106445226Y-115248102D01*
X106367205Y-115059744D01*
X106253937Y-114890226D01*
X106109774Y-114746063D01*
X105940256Y-114632795D01*
X105751898Y-114554774D01*
X105551939Y-114515000D01*
X105348061Y-114515000D01*
X105148102Y-114554774D01*
X104959744Y-114632795D01*
X104790226Y-114746063D01*
X104646063Y-114890226D01*
X104532795Y-115059744D01*
X104454774Y-115248102D01*
X104415000Y-115448061D01*
X104415000Y-115651939D01*
X104452407Y-115840000D01*
X102637322Y-115840000D01*
X102599999Y-115836324D01*
X102562676Y-115840000D01*
X102562667Y-115840000D01*
X102451014Y-115850997D01*
X102307753Y-115894454D01*
X102175724Y-115965026D01*
X102173684Y-115966700D01*
X102088996Y-116036201D01*
X102088992Y-116036205D01*
X102059999Y-116059999D01*
X102036205Y-116088992D01*
X100610198Y-117515000D01*
X100548061Y-117515000D01*
X100348102Y-117554774D01*
X100159744Y-117632795D01*
X99990226Y-117746063D01*
X99846063Y-117890226D01*
X99732795Y-118059744D01*
X99654774Y-118248102D01*
X99615000Y-118448061D01*
X99615000Y-118651939D01*
X99654774Y-118851898D01*
X99732795Y-119040256D01*
X99846063Y-119209774D01*
X99990226Y-119353937D01*
X100159744Y-119467205D01*
X100348102Y-119545226D01*
X100548061Y-119585000D01*
X100751939Y-119585000D01*
X100951898Y-119545226D01*
X101140256Y-119467205D01*
X101309774Y-119353937D01*
X101453937Y-119209774D01*
X101567205Y-119040256D01*
X101645226Y-118851898D01*
X101685000Y-118651939D01*
X101685000Y-118589802D01*
X102914803Y-117360000D01*
X105412667Y-117360000D01*
X105450000Y-117363677D01*
X105487333Y-117360000D01*
X109496289Y-117360000D01*
X109540226Y-117403937D01*
X109709744Y-117517205D01*
X109896374Y-117594510D01*
X107139003Y-120351881D01*
X107109999Y-120375684D01*
X107054871Y-120442859D01*
X107015026Y-120491409D01*
X106944455Y-120623438D01*
X106944454Y-120623439D01*
X106900997Y-120766700D01*
X106890000Y-120878353D01*
X106890000Y-120878363D01*
X106886324Y-120915685D01*
X106890000Y-120953007D01*
X106890001Y-132596288D01*
X106846063Y-132640226D01*
X106732795Y-132809744D01*
X106654774Y-132998102D01*
X106615000Y-133198061D01*
X106615000Y-133401939D01*
X106654774Y-133601898D01*
X106732795Y-133790256D01*
X106846063Y-133959774D01*
X106990226Y-134103937D01*
X107159744Y-134217205D01*
X107348102Y-134295226D01*
X107548061Y-134335000D01*
X107751939Y-134335000D01*
X107951898Y-134295226D01*
X108140256Y-134217205D01*
X108309774Y-134103937D01*
X108453937Y-133959774D01*
X108567205Y-133790256D01*
X108645226Y-133601898D01*
X108659925Y-133528000D01*
X119843928Y-133528000D01*
X119847000Y-134342250D01*
X120005750Y-134501000D01*
X121225000Y-134501000D01*
X121225000Y-133051750D01*
X121479000Y-133051750D01*
X121479000Y-134501000D01*
X121499000Y-134501000D01*
X121499000Y-134755000D01*
X121479000Y-134755000D01*
X121479000Y-136204250D01*
X121637750Y-136363000D01*
X122222000Y-136366072D01*
X122346482Y-136353812D01*
X122466180Y-136317502D01*
X122576494Y-136258537D01*
X122673185Y-136179185D01*
X122752537Y-136082494D01*
X122811502Y-135972180D01*
X122824615Y-135928953D01*
X123051822Y-136115417D01*
X123313276Y-136255166D01*
X123596969Y-136341224D01*
X123892000Y-136370282D01*
X124187032Y-136341224D01*
X124470725Y-136255166D01*
X124732179Y-136115417D01*
X124961345Y-135927345D01*
X125149417Y-135698179D01*
X125162000Y-135674638D01*
X125174583Y-135698179D01*
X125362655Y-135927345D01*
X125591822Y-136115417D01*
X125853276Y-136255166D01*
X126136969Y-136341224D01*
X126432000Y-136370282D01*
X126727032Y-136341224D01*
X127010725Y-136255166D01*
X127272179Y-136115417D01*
X127501345Y-135927345D01*
X127689417Y-135698179D01*
X127702000Y-135674638D01*
X127714583Y-135698179D01*
X127902655Y-135927345D01*
X128131822Y-136115417D01*
X128393276Y-136255166D01*
X128676969Y-136341224D01*
X128972000Y-136370282D01*
X129267032Y-136341224D01*
X129550725Y-136255166D01*
X129812179Y-136115417D01*
X130041345Y-135927345D01*
X130210871Y-135720777D01*
X144465000Y-135720777D01*
X144465000Y-136279223D01*
X144573948Y-136826939D01*
X144787656Y-137342876D01*
X145097912Y-137807207D01*
X145492793Y-138202088D01*
X145957124Y-138512344D01*
X146473061Y-138726052D01*
X147020777Y-138835000D01*
X147579223Y-138835000D01*
X148126939Y-138726052D01*
X148642876Y-138512344D01*
X149107207Y-138202088D01*
X149502088Y-137807207D01*
X149812344Y-137342876D01*
X150026052Y-136826939D01*
X150135000Y-136279223D01*
X150135000Y-135720777D01*
X150026052Y-135173061D01*
X149812344Y-134657124D01*
X149502088Y-134192793D01*
X149107207Y-133797912D01*
X148642876Y-133487656D01*
X148126939Y-133273948D01*
X147579223Y-133165000D01*
X147020777Y-133165000D01*
X146473061Y-133273948D01*
X145957124Y-133487656D01*
X145492793Y-133797912D01*
X145097912Y-134192793D01*
X144787656Y-134657124D01*
X144573948Y-135173061D01*
X144465000Y-135720777D01*
X130210871Y-135720777D01*
X130229417Y-135698179D01*
X130369166Y-135436724D01*
X130455224Y-135153031D01*
X130477000Y-134931935D01*
X130477000Y-134324064D01*
X130455224Y-134102968D01*
X130369166Y-133819275D01*
X130229417Y-133557821D01*
X130041345Y-133328655D01*
X129812178Y-133140583D01*
X129550724Y-133000834D01*
X129267031Y-132914776D01*
X128972000Y-132885718D01*
X128676968Y-132914776D01*
X128393275Y-133000834D01*
X128131821Y-133140583D01*
X127902655Y-133328655D01*
X127714583Y-133557822D01*
X127702000Y-133581363D01*
X127689417Y-133557821D01*
X127501345Y-133328655D01*
X127272178Y-133140583D01*
X127010724Y-133000834D01*
X126727031Y-132914776D01*
X126432000Y-132885718D01*
X126136968Y-132914776D01*
X125853275Y-133000834D01*
X125591821Y-133140583D01*
X125362655Y-133328655D01*
X125174583Y-133557822D01*
X125162000Y-133581363D01*
X125149417Y-133557821D01*
X124961345Y-133328655D01*
X124732178Y-133140583D01*
X124470724Y-133000834D01*
X124187031Y-132914776D01*
X123892000Y-132885718D01*
X123596968Y-132914776D01*
X123313275Y-133000834D01*
X123051821Y-133140583D01*
X122824615Y-133327047D01*
X122811502Y-133283820D01*
X122752537Y-133173506D01*
X122673185Y-133076815D01*
X122576494Y-132997463D01*
X122466180Y-132938498D01*
X122346482Y-132902188D01*
X122222000Y-132889928D01*
X121637750Y-132893000D01*
X121479000Y-133051750D01*
X121225000Y-133051750D01*
X121066250Y-132893000D01*
X120482000Y-132889928D01*
X120357518Y-132902188D01*
X120237820Y-132938498D01*
X120127506Y-132997463D01*
X120030815Y-133076815D01*
X119951463Y-133173506D01*
X119892498Y-133283820D01*
X119856188Y-133403518D01*
X119843928Y-133528000D01*
X108659925Y-133528000D01*
X108685000Y-133401939D01*
X108685000Y-133198061D01*
X108645226Y-132998102D01*
X108567205Y-132809744D01*
X108453937Y-132640226D01*
X108410000Y-132596289D01*
X108410000Y-125198061D01*
X122165000Y-125198061D01*
X122165000Y-125401939D01*
X122204774Y-125601898D01*
X122282795Y-125790256D01*
X122396063Y-125959774D01*
X122540226Y-126103937D01*
X122709744Y-126217205D01*
X122898102Y-126295226D01*
X123098061Y-126335000D01*
X123301939Y-126335000D01*
X123501898Y-126295226D01*
X123690256Y-126217205D01*
X123859774Y-126103937D01*
X124003937Y-125959774D01*
X124117205Y-125790256D01*
X124195226Y-125601898D01*
X124235000Y-125401939D01*
X124235000Y-125198061D01*
X124195226Y-124998102D01*
X124117205Y-124809744D01*
X124003937Y-124640226D01*
X123960000Y-124596289D01*
X123960000Y-119264801D01*
X127539802Y-115685000D01*
X127601939Y-115685000D01*
X127801898Y-115645226D01*
X127990256Y-115567205D01*
X128159774Y-115453937D01*
X128303937Y-115309774D01*
X128417205Y-115140256D01*
X128495226Y-114951898D01*
X128535000Y-114751939D01*
X128535000Y-114725487D01*
X129140000Y-115330487D01*
X129140001Y-123012805D01*
X129090226Y-123046063D01*
X128946063Y-123190226D01*
X128832795Y-123359744D01*
X128754774Y-123548102D01*
X128715000Y-123748061D01*
X128715000Y-123951939D01*
X128754774Y-124151898D01*
X128832795Y-124340256D01*
X128946063Y-124509774D01*
X129090226Y-124653937D01*
X129259744Y-124767205D01*
X129448102Y-124845226D01*
X129648061Y-124885000D01*
X129851939Y-124885000D01*
X130051898Y-124845226D01*
X130240256Y-124767205D01*
X130409774Y-124653937D01*
X130553937Y-124509774D01*
X130667205Y-124340256D01*
X130745226Y-124151898D01*
X130785000Y-123951939D01*
X130785000Y-123748061D01*
X130745226Y-123548102D01*
X130667205Y-123359744D01*
X130660000Y-123348961D01*
X130660000Y-115053007D01*
X130663676Y-115015684D01*
X130660000Y-114978361D01*
X130660000Y-114978352D01*
X130649003Y-114866699D01*
X130605546Y-114723438D01*
X130591613Y-114697371D01*
X130534974Y-114591408D01*
X130463799Y-114504682D01*
X130440001Y-114475684D01*
X130411004Y-114451887D01*
X127741271Y-111782155D01*
X127795226Y-111651898D01*
X127808809Y-111583610D01*
X131340000Y-115114802D01*
X131340001Y-124896288D01*
X131296063Y-124940226D01*
X131182795Y-125109744D01*
X131104774Y-125298102D01*
X131065000Y-125498061D01*
X131065000Y-125701939D01*
X131104774Y-125901898D01*
X131182795Y-126090256D01*
X131296063Y-126259774D01*
X131440226Y-126403937D01*
X131609744Y-126517205D01*
X131798102Y-126595226D01*
X131998061Y-126635000D01*
X132201939Y-126635000D01*
X132401898Y-126595226D01*
X132590256Y-126517205D01*
X132759774Y-126403937D01*
X132903937Y-126259774D01*
X133017205Y-126090256D01*
X133095226Y-125901898D01*
X133135000Y-125701939D01*
X133135000Y-125498061D01*
X133095226Y-125298102D01*
X133017205Y-125109744D01*
X132903937Y-124940226D01*
X132860000Y-124896289D01*
X132860000Y-118213589D01*
X139165000Y-118213589D01*
X139165000Y-118486411D01*
X139218225Y-118753989D01*
X139322629Y-119006043D01*
X139474201Y-119232886D01*
X139667114Y-119425799D01*
X139893957Y-119577371D01*
X140146011Y-119681775D01*
X140413589Y-119735000D01*
X140686411Y-119735000D01*
X140953989Y-119681775D01*
X141206043Y-119577371D01*
X141432886Y-119425799D01*
X141625799Y-119232886D01*
X141777371Y-119006043D01*
X141881775Y-118753989D01*
X141935000Y-118486411D01*
X141935000Y-118213589D01*
X141881775Y-117946011D01*
X141777371Y-117693957D01*
X141625799Y-117467114D01*
X141432886Y-117274201D01*
X141206043Y-117122629D01*
X140953989Y-117018225D01*
X140686411Y-116965000D01*
X140413589Y-116965000D01*
X140146011Y-117018225D01*
X139893957Y-117122629D01*
X139667114Y-117274201D01*
X139474201Y-117467114D01*
X139322629Y-117693957D01*
X139218225Y-117946011D01*
X139165000Y-118213589D01*
X132860000Y-118213589D01*
X132860000Y-114837322D01*
X132863676Y-114799999D01*
X132860000Y-114762676D01*
X132860000Y-114762667D01*
X132849003Y-114651014D01*
X132805546Y-114507753D01*
X132734974Y-114375724D01*
X132640001Y-114259999D01*
X132611004Y-114236202D01*
X131708391Y-113333589D01*
X139165000Y-113333589D01*
X139165000Y-113606411D01*
X139218225Y-113873989D01*
X139322629Y-114126043D01*
X139474201Y-114352886D01*
X139667114Y-114545799D01*
X139893957Y-114697371D01*
X140146011Y-114801775D01*
X140413589Y-114855000D01*
X140686411Y-114855000D01*
X140953989Y-114801775D01*
X141206043Y-114697371D01*
X141432886Y-114545799D01*
X141625799Y-114352886D01*
X141777371Y-114126043D01*
X141881775Y-113873989D01*
X141935000Y-113606411D01*
X141935000Y-113333589D01*
X141881775Y-113066011D01*
X141777371Y-112813957D01*
X141625799Y-112587114D01*
X141432886Y-112394201D01*
X141206043Y-112242629D01*
X140953989Y-112138225D01*
X140686411Y-112085000D01*
X140413589Y-112085000D01*
X140146011Y-112138225D01*
X139893957Y-112242629D01*
X139667114Y-112394201D01*
X139474201Y-112587114D01*
X139322629Y-112813957D01*
X139218225Y-113066011D01*
X139165000Y-113333589D01*
X131708391Y-113333589D01*
X127563804Y-109189003D01*
X127540001Y-109159999D01*
X127424276Y-109065026D01*
X127292247Y-108994454D01*
X127148986Y-108950997D01*
X127037333Y-108940000D01*
X127037322Y-108940000D01*
X127000000Y-108936324D01*
X126962678Y-108940000D01*
X126253711Y-108940000D01*
X126209774Y-108896063D01*
X126040256Y-108782795D01*
X125851898Y-108704774D01*
X125651939Y-108665000D01*
X125448061Y-108665000D01*
X125248102Y-108704774D01*
X125059744Y-108782795D01*
X124890226Y-108896063D01*
X124746063Y-109040226D01*
X124632795Y-109209744D01*
X124554774Y-109398102D01*
X124515000Y-109598061D01*
X124515000Y-109801939D01*
X124554774Y-110001898D01*
X124632795Y-110190256D01*
X124746063Y-110359774D01*
X124890226Y-110503937D01*
X125059744Y-110617205D01*
X125248102Y-110695226D01*
X125448061Y-110735000D01*
X125651939Y-110735000D01*
X125851898Y-110695226D01*
X126040256Y-110617205D01*
X126127134Y-110559155D01*
X125996063Y-110690226D01*
X125882795Y-110859744D01*
X125804774Y-111048102D01*
X125765000Y-111248061D01*
X125765000Y-111451939D01*
X125804774Y-111651898D01*
X125882795Y-111840256D01*
X125996063Y-112009774D01*
X126051013Y-112064724D01*
X126094454Y-112207932D01*
X126119037Y-112253921D01*
X126165026Y-112339961D01*
X126236201Y-112426687D01*
X126260000Y-112455686D01*
X126288998Y-112479484D01*
X127424514Y-113615000D01*
X127398061Y-113615000D01*
X127198102Y-113654774D01*
X127009744Y-113732795D01*
X126840226Y-113846063D01*
X126696063Y-113990226D01*
X126582795Y-114159744D01*
X126504774Y-114348102D01*
X126465000Y-114548061D01*
X126465000Y-114610198D01*
X122689003Y-118386196D01*
X122659999Y-118409999D01*
X122628763Y-118448061D01*
X122565026Y-118525724D01*
X122497562Y-118651939D01*
X122494454Y-118657754D01*
X122450997Y-118801015D01*
X122440000Y-118912668D01*
X122440000Y-118912678D01*
X122436324Y-118950000D01*
X122440000Y-118987323D01*
X122440001Y-124596288D01*
X122396063Y-124640226D01*
X122282795Y-124809744D01*
X122204774Y-124998102D01*
X122165000Y-125198061D01*
X108410000Y-125198061D01*
X108410000Y-121230486D01*
X123611003Y-106029484D01*
X123640001Y-106005686D01*
X123734974Y-105889961D01*
X123805546Y-105757932D01*
X123848987Y-105614724D01*
X123903937Y-105559774D01*
X124017205Y-105390256D01*
X124095226Y-105201898D01*
X124135000Y-105001939D01*
X124135000Y-104798061D01*
X124095226Y-104598102D01*
X124017205Y-104409744D01*
X123903937Y-104240226D01*
X123759774Y-104096063D01*
X123590256Y-103982795D01*
X123401898Y-103904774D01*
X123201939Y-103865000D01*
X122998061Y-103865000D01*
X122798102Y-103904774D01*
X122609744Y-103982795D01*
X122440226Y-104096063D01*
X122296063Y-104240226D01*
X122182795Y-104409744D01*
X122104774Y-104598102D01*
X122065000Y-104798061D01*
X122065000Y-105001939D01*
X122104774Y-105201898D01*
X122158728Y-105332155D01*
X120210000Y-107280883D01*
X120210000Y-105053711D01*
X120253937Y-105009774D01*
X120367205Y-104840256D01*
X120445226Y-104651898D01*
X120485000Y-104451939D01*
X120485000Y-104248061D01*
X120445226Y-104048102D01*
X120367205Y-103859744D01*
X120253937Y-103690226D01*
X120109774Y-103546063D01*
X119940256Y-103432795D01*
X119751898Y-103354774D01*
X119551939Y-103315000D01*
X119408533Y-103315000D01*
X119395226Y-103248102D01*
X119317205Y-103059744D01*
X119203937Y-102890226D01*
X119059774Y-102746063D01*
X118890256Y-102632795D01*
X118701898Y-102554774D01*
X118675534Y-102549530D01*
X118685000Y-102501939D01*
X118685000Y-102298061D01*
X118645226Y-102098102D01*
X118567205Y-101909744D01*
X118501821Y-101811890D01*
X118503937Y-101809774D01*
X118577285Y-101700000D01*
X144011928Y-101700000D01*
X144024188Y-101824482D01*
X144060498Y-101944180D01*
X144119463Y-102054494D01*
X144198815Y-102151185D01*
X144295506Y-102230537D01*
X144405820Y-102289502D01*
X144525518Y-102325812D01*
X144650000Y-102338072D01*
X145214250Y-102335000D01*
X145373000Y-102176250D01*
X145373000Y-100977000D01*
X145627000Y-100977000D01*
X145627000Y-102176250D01*
X145785750Y-102335000D01*
X146350000Y-102338072D01*
X146474482Y-102325812D01*
X146594180Y-102289502D01*
X146704494Y-102230537D01*
X146801185Y-102151185D01*
X146880537Y-102054494D01*
X146939502Y-101944180D01*
X146975812Y-101824482D01*
X146988072Y-101700000D01*
X146985000Y-101135750D01*
X146826250Y-100977000D01*
X145627000Y-100977000D01*
X145373000Y-100977000D01*
X144173750Y-100977000D01*
X144015000Y-101135750D01*
X144011928Y-101700000D01*
X118577285Y-101700000D01*
X118617205Y-101640256D01*
X118695226Y-101451898D01*
X118735000Y-101251939D01*
X118735000Y-101048061D01*
X118695226Y-100848102D01*
X118617205Y-100659744D01*
X118551821Y-100561890D01*
X118603937Y-100509774D01*
X118717205Y-100340256D01*
X118795226Y-100151898D01*
X118835000Y-99951939D01*
X118835000Y-99748061D01*
X118795226Y-99548102D01*
X118717205Y-99359744D01*
X118603937Y-99190226D01*
X118459774Y-99046063D01*
X118290256Y-98932795D01*
X118101898Y-98854774D01*
X117901939Y-98815000D01*
X117698061Y-98815000D01*
X117498102Y-98854774D01*
X117309744Y-98932795D01*
X117140226Y-99046063D01*
X117096289Y-99090000D01*
X109664802Y-99090000D01*
X107235000Y-96660199D01*
X107235000Y-96598061D01*
X107195226Y-96398102D01*
X107117205Y-96209744D01*
X107003937Y-96040226D01*
X106859774Y-95896063D01*
X106690256Y-95782795D01*
X106501898Y-95704774D01*
X106301939Y-95665000D01*
X106098061Y-95665000D01*
X105898102Y-95704774D01*
X105709744Y-95782795D01*
X105540226Y-95896063D01*
X105396063Y-96040226D01*
X105282795Y-96209744D01*
X105204774Y-96398102D01*
X105165000Y-96598061D01*
X105165000Y-96801939D01*
X105204774Y-97001898D01*
X105282795Y-97190256D01*
X105396063Y-97359774D01*
X105540226Y-97503937D01*
X105709744Y-97617205D01*
X105898102Y-97695226D01*
X106098061Y-97735000D01*
X106160199Y-97735000D01*
X108786201Y-100361003D01*
X108809998Y-100390000D01*
X100837323Y-100390000D01*
X100800000Y-100386324D01*
X100762677Y-100390000D01*
X100762667Y-100390000D01*
X100651014Y-100400997D01*
X100507753Y-100444454D01*
X100375724Y-100515026D01*
X100259999Y-100609999D01*
X100236200Y-100638998D01*
X100110198Y-100765000D01*
X100048061Y-100765000D01*
X99848102Y-100804774D01*
X99659744Y-100882795D01*
X99490226Y-100996063D01*
X99346063Y-101140226D01*
X99232795Y-101309744D01*
X99154774Y-101498102D01*
X99115000Y-101698061D01*
X78324000Y-101698061D01*
X78324000Y-97905740D01*
X86379000Y-97905740D01*
X86379000Y-98198260D01*
X86436068Y-98485158D01*
X86548010Y-98755411D01*
X86710525Y-98998632D01*
X86917368Y-99205475D01*
X87160589Y-99367990D01*
X87430842Y-99479932D01*
X87717740Y-99537000D01*
X88010260Y-99537000D01*
X88297158Y-99479932D01*
X88567411Y-99367990D01*
X88810632Y-99205475D01*
X89017475Y-98998632D01*
X89179990Y-98755411D01*
X89291932Y-98485158D01*
X89349000Y-98198260D01*
X89349000Y-97905740D01*
X93379000Y-97905740D01*
X93379000Y-98198260D01*
X93436068Y-98485158D01*
X93548010Y-98755411D01*
X93710525Y-98998632D01*
X93917368Y-99205475D01*
X94160589Y-99367990D01*
X94430842Y-99479932D01*
X94717740Y-99537000D01*
X95010260Y-99537000D01*
X95297158Y-99479932D01*
X95567411Y-99367990D01*
X95810632Y-99205475D01*
X96017475Y-98998632D01*
X96179990Y-98755411D01*
X96291932Y-98485158D01*
X96349000Y-98198260D01*
X96349000Y-97905740D01*
X96291932Y-97618842D01*
X96179990Y-97348589D01*
X96017475Y-97105368D01*
X95810632Y-96898525D01*
X95567411Y-96736010D01*
X95297158Y-96624068D01*
X95010260Y-96567000D01*
X94717740Y-96567000D01*
X94430842Y-96624068D01*
X94160589Y-96736010D01*
X93917368Y-96898525D01*
X93710525Y-97105368D01*
X93548010Y-97348589D01*
X93436068Y-97618842D01*
X93379000Y-97905740D01*
X89349000Y-97905740D01*
X89291932Y-97618842D01*
X89179990Y-97348589D01*
X89017475Y-97105368D01*
X88810632Y-96898525D01*
X88567411Y-96736010D01*
X88297158Y-96624068D01*
X88010260Y-96567000D01*
X87717740Y-96567000D01*
X87430842Y-96624068D01*
X87160589Y-96736010D01*
X86917368Y-96898525D01*
X86710525Y-97105368D01*
X86548010Y-97348589D01*
X86436068Y-97618842D01*
X86379000Y-97905740D01*
X78324000Y-97905740D01*
X78324000Y-92098061D01*
X108115000Y-92098061D01*
X108115000Y-92301939D01*
X108154774Y-92501898D01*
X108232795Y-92690256D01*
X108346063Y-92859774D01*
X108490226Y-93003937D01*
X108659744Y-93117205D01*
X108848102Y-93195226D01*
X109048061Y-93235000D01*
X109074843Y-93235000D01*
X113467658Y-97627816D01*
X113492236Y-97657764D01*
X113522184Y-97682342D01*
X113522187Y-97682345D01*
X113537883Y-97695226D01*
X113611767Y-97755862D01*
X113748140Y-97828754D01*
X113861672Y-97863194D01*
X113896112Y-97873641D01*
X113910490Y-97875057D01*
X114011439Y-97885000D01*
X114011446Y-97885000D01*
X114049999Y-97888797D01*
X114088552Y-97885000D01*
X132371289Y-97885000D01*
X132390226Y-97903937D01*
X132559744Y-98017205D01*
X132748102Y-98095226D01*
X132948061Y-98135000D01*
X133151939Y-98135000D01*
X133351898Y-98095226D01*
X133540256Y-98017205D01*
X133709774Y-97903937D01*
X133853937Y-97759774D01*
X133967205Y-97590256D01*
X134045226Y-97401898D01*
X134085000Y-97201939D01*
X134085000Y-96998061D01*
X134045226Y-96798102D01*
X133967205Y-96609744D01*
X133853937Y-96440226D01*
X133709774Y-96296063D01*
X133540256Y-96182795D01*
X133465159Y-96151688D01*
X133485000Y-96051939D01*
X133485000Y-95848061D01*
X133445226Y-95648102D01*
X133367205Y-95459744D01*
X133253937Y-95290226D01*
X133109774Y-95146063D01*
X132940256Y-95032795D01*
X132751898Y-94954774D01*
X132551939Y-94915000D01*
X132525157Y-94915000D01*
X132482346Y-94872189D01*
X132457764Y-94842236D01*
X132338233Y-94744138D01*
X132201860Y-94671246D01*
X132053887Y-94626359D01*
X131938561Y-94615000D01*
X131938553Y-94615000D01*
X131900000Y-94611203D01*
X131861447Y-94615000D01*
X116525158Y-94615000D01*
X116179692Y-94269534D01*
X116301898Y-94245226D01*
X116490256Y-94167205D01*
X116659774Y-94053937D01*
X116803937Y-93909774D01*
X116917205Y-93740256D01*
X116995226Y-93551898D01*
X117035000Y-93351939D01*
X117035000Y-93325157D01*
X118275158Y-92085000D01*
X121071289Y-92085000D01*
X121090226Y-92103937D01*
X121259744Y-92217205D01*
X121448102Y-92295226D01*
X121648061Y-92335000D01*
X121851939Y-92335000D01*
X122051898Y-92295226D01*
X122240256Y-92217205D01*
X122409774Y-92103937D01*
X122553937Y-91959774D01*
X122667205Y-91790256D01*
X122745226Y-91601898D01*
X122785000Y-91401939D01*
X122785000Y-91198061D01*
X122745226Y-90998102D01*
X122667205Y-90809744D01*
X122553937Y-90640226D01*
X122409774Y-90496063D01*
X122240256Y-90382795D01*
X122051898Y-90304774D01*
X121851939Y-90265000D01*
X121648061Y-90265000D01*
X121448102Y-90304774D01*
X121259744Y-90382795D01*
X121090226Y-90496063D01*
X121071289Y-90515000D01*
X117988552Y-90515000D01*
X117949999Y-90511203D01*
X117911446Y-90515000D01*
X117911439Y-90515000D01*
X117810490Y-90524943D01*
X117796112Y-90526359D01*
X117763962Y-90536112D01*
X117648140Y-90571246D01*
X117511767Y-90644138D01*
X117455886Y-90689999D01*
X117422187Y-90717655D01*
X117422184Y-90717658D01*
X117392236Y-90742236D01*
X117367658Y-90772184D01*
X115924843Y-92215000D01*
X115898061Y-92215000D01*
X115698102Y-92254774D01*
X115509744Y-92332795D01*
X115340226Y-92446063D01*
X115196063Y-92590226D01*
X115082795Y-92759744D01*
X115004774Y-92948102D01*
X114980466Y-93070308D01*
X114135000Y-92224843D01*
X114135000Y-92198061D01*
X114095226Y-91998102D01*
X114017205Y-91809744D01*
X113903937Y-91640226D01*
X113759774Y-91496063D01*
X113590256Y-91382795D01*
X113401898Y-91304774D01*
X113201939Y-91265000D01*
X112998061Y-91265000D01*
X112798102Y-91304774D01*
X112609744Y-91382795D01*
X112440226Y-91496063D01*
X112296063Y-91640226D01*
X112182795Y-91809744D01*
X112104774Y-91998102D01*
X112065000Y-92198061D01*
X112065000Y-92401939D01*
X112104774Y-92601898D01*
X112182795Y-92790256D01*
X112296063Y-92959774D01*
X112440226Y-93103937D01*
X112609744Y-93217205D01*
X112798102Y-93295226D01*
X112998061Y-93335000D01*
X113024843Y-93335000D01*
X115617658Y-95927816D01*
X115642236Y-95957764D01*
X115672184Y-95982342D01*
X115672187Y-95982345D01*
X115686942Y-95994454D01*
X115761767Y-96055862D01*
X115898140Y-96128754D01*
X116046113Y-96173641D01*
X116161439Y-96185000D01*
X116161446Y-96185000D01*
X116199999Y-96188797D01*
X116238552Y-96185000D01*
X131441467Y-96185000D01*
X131454774Y-96251898D01*
X131480912Y-96315000D01*
X114375158Y-96315000D01*
X110185000Y-92124843D01*
X110185000Y-92098061D01*
X110145226Y-91898102D01*
X110067205Y-91709744D01*
X109953937Y-91540226D01*
X109809774Y-91396063D01*
X109640256Y-91282795D01*
X109451898Y-91204774D01*
X109251939Y-91165000D01*
X109048061Y-91165000D01*
X108848102Y-91204774D01*
X108659744Y-91282795D01*
X108490226Y-91396063D01*
X108346063Y-91540226D01*
X108232795Y-91709744D01*
X108154774Y-91898102D01*
X108115000Y-92098061D01*
X78324000Y-92098061D01*
X78324000Y-71215999D01*
X82505928Y-71215999D01*
X82505928Y-72456001D01*
X82522992Y-72629255D01*
X82573528Y-72795851D01*
X82655595Y-72949387D01*
X82766038Y-73083962D01*
X82900613Y-73194405D01*
X83054149Y-73276472D01*
X83220745Y-73327008D01*
X83393999Y-73344072D01*
X85094001Y-73344072D01*
X85267255Y-73327008D01*
X85433851Y-73276472D01*
X85587387Y-73194405D01*
X85721962Y-73083962D01*
X85832405Y-72949387D01*
X85914472Y-72795851D01*
X85965008Y-72629255D01*
X85982072Y-72456001D01*
X85982072Y-71215999D01*
X85965008Y-71042745D01*
X85914472Y-70876149D01*
X85832405Y-70722613D01*
X85721962Y-70588038D01*
X85587387Y-70477595D01*
X85478686Y-70419493D01*
X85634536Y-70266494D01*
X85801571Y-70021437D01*
X85917588Y-69748502D01*
X85935302Y-69656031D01*
X85814246Y-69423000D01*
X84371000Y-69423000D01*
X84371000Y-69443000D01*
X84117000Y-69443000D01*
X84117000Y-69423000D01*
X82673754Y-69423000D01*
X82552698Y-69656031D01*
X82570412Y-69748502D01*
X82686429Y-70021437D01*
X82853464Y-70266494D01*
X83009314Y-70419493D01*
X82900613Y-70477595D01*
X82766038Y-70588038D01*
X82655595Y-70722613D01*
X82573528Y-70876149D01*
X82522992Y-71042745D01*
X82505928Y-71215999D01*
X78324000Y-71215999D01*
X78324000Y-68935969D01*
X82552698Y-68935969D01*
X82673754Y-69169000D01*
X84117000Y-69169000D01*
X84117000Y-67945414D01*
X84371000Y-67945414D01*
X84371000Y-69169000D01*
X85814246Y-69169000D01*
X85935302Y-68935969D01*
X85917588Y-68843498D01*
X85801571Y-68570563D01*
X85634536Y-68325506D01*
X85422903Y-68117744D01*
X85174804Y-67955262D01*
X84899773Y-67844304D01*
X84608380Y-67789134D01*
X84371000Y-67945414D01*
X84117000Y-67945414D01*
X83879620Y-67789134D01*
X83588227Y-67844304D01*
X83313196Y-67955262D01*
X83065097Y-68117744D01*
X82853464Y-68325506D01*
X82686429Y-68570563D01*
X82570412Y-68843498D01*
X82552698Y-68935969D01*
X78324000Y-68935969D01*
X78324000Y-65748061D01*
X97715000Y-65748061D01*
X97715000Y-65951939D01*
X97754774Y-66151898D01*
X97832795Y-66340256D01*
X97946063Y-66509774D01*
X98090226Y-66653937D01*
X98259744Y-66767205D01*
X98448102Y-66845226D01*
X98648061Y-66885000D01*
X98674843Y-66885000D01*
X102265000Y-70475158D01*
X102265001Y-83711437D01*
X102261203Y-83750000D01*
X102276359Y-83903886D01*
X102321246Y-84051859D01*
X102321247Y-84051860D01*
X102394139Y-84188233D01*
X102422006Y-84222188D01*
X102467655Y-84277812D01*
X102467659Y-84277816D01*
X102492237Y-84307764D01*
X102522185Y-84332342D01*
X103015000Y-84825157D01*
X103015000Y-84851939D01*
X103054774Y-85051898D01*
X103132795Y-85240256D01*
X103246063Y-85409774D01*
X103390226Y-85553937D01*
X103559744Y-85667205D01*
X103748102Y-85745226D01*
X103948061Y-85785000D01*
X104151939Y-85785000D01*
X104351898Y-85745226D01*
X104540256Y-85667205D01*
X104709774Y-85553937D01*
X104853937Y-85409774D01*
X104967205Y-85240256D01*
X105045226Y-85051898D01*
X105085000Y-84851939D01*
X105085000Y-84648061D01*
X105045226Y-84448102D01*
X104967205Y-84259744D01*
X104853937Y-84090226D01*
X104709774Y-83946063D01*
X104540256Y-83832795D01*
X104351898Y-83754774D01*
X104151939Y-83715000D01*
X104125157Y-83715000D01*
X103835000Y-83424843D01*
X103835000Y-76174869D01*
X103882795Y-76290256D01*
X103996063Y-76459774D01*
X104015001Y-76478712D01*
X104015000Y-79811447D01*
X104011203Y-79850000D01*
X104015000Y-79888553D01*
X104015000Y-79888560D01*
X104026359Y-80003886D01*
X104071246Y-80151859D01*
X104144138Y-80288232D01*
X104242236Y-80407764D01*
X104272190Y-80432347D01*
X105867658Y-82027816D01*
X105892236Y-82057764D01*
X105922184Y-82082342D01*
X105922187Y-82082345D01*
X105951559Y-82106450D01*
X106011767Y-82155862D01*
X106148140Y-82228754D01*
X106261672Y-82263194D01*
X106296112Y-82273641D01*
X106310490Y-82275057D01*
X106411439Y-82285000D01*
X106411446Y-82285000D01*
X106449999Y-82288797D01*
X106488552Y-82285000D01*
X123759158Y-82285000D01*
X126801968Y-85327810D01*
X126826551Y-85357764D01*
X126946082Y-85455862D01*
X127072891Y-85523642D01*
X127082455Y-85528754D01*
X127230428Y-85573642D01*
X127263154Y-85576865D01*
X127290226Y-85603937D01*
X127459744Y-85717205D01*
X127648102Y-85795226D01*
X127848061Y-85835000D01*
X128051939Y-85835000D01*
X128251898Y-85795226D01*
X128440256Y-85717205D01*
X128609774Y-85603937D01*
X128753937Y-85459774D01*
X128867205Y-85290256D01*
X128945226Y-85101898D01*
X128985000Y-84901939D01*
X128985000Y-84698061D01*
X128945226Y-84498102D01*
X128867205Y-84309744D01*
X128753937Y-84140226D01*
X128609774Y-83996063D01*
X128440256Y-83882795D01*
X128251898Y-83804774D01*
X128051939Y-83765000D01*
X127848061Y-83765000D01*
X127648102Y-83804774D01*
X127542845Y-83848373D01*
X124666662Y-80972190D01*
X124642079Y-80942236D01*
X124522548Y-80844138D01*
X124386175Y-80771246D01*
X124238202Y-80726359D01*
X124122876Y-80715000D01*
X124122868Y-80715000D01*
X124084315Y-80711203D01*
X124045762Y-80715000D01*
X106775158Y-80715000D01*
X105585000Y-79524843D01*
X105585000Y-76898061D01*
X127915000Y-76898061D01*
X127915000Y-77101939D01*
X127954774Y-77301898D01*
X128032795Y-77490256D01*
X128146063Y-77659774D01*
X128290226Y-77803937D01*
X128459744Y-77917205D01*
X128648102Y-77995226D01*
X128848061Y-78035000D01*
X128874843Y-78035000D01*
X144015000Y-93175158D01*
X144015000Y-93376260D01*
X144072068Y-93663158D01*
X144184010Y-93933411D01*
X144346525Y-94176632D01*
X144553368Y-94383475D01*
X144727760Y-94500000D01*
X144553368Y-94616525D01*
X144346525Y-94823368D01*
X144184010Y-95066589D01*
X144072068Y-95336842D01*
X144015000Y-95623740D01*
X144015000Y-95916260D01*
X144072068Y-96203158D01*
X144184010Y-96473411D01*
X144346525Y-96716632D01*
X144553368Y-96923475D01*
X144727760Y-97040000D01*
X144553368Y-97156525D01*
X144346525Y-97363368D01*
X144184010Y-97606589D01*
X144072068Y-97876842D01*
X144015000Y-98163740D01*
X144015000Y-98456260D01*
X144072068Y-98743158D01*
X144184010Y-99013411D01*
X144346525Y-99256632D01*
X144478380Y-99388487D01*
X144405820Y-99410498D01*
X144295506Y-99469463D01*
X144198815Y-99548815D01*
X144119463Y-99645506D01*
X144060498Y-99755820D01*
X144024188Y-99875518D01*
X144011928Y-100000000D01*
X144015000Y-100564250D01*
X144173750Y-100723000D01*
X145373000Y-100723000D01*
X145373000Y-100703000D01*
X145627000Y-100703000D01*
X145627000Y-100723000D01*
X146826250Y-100723000D01*
X146985000Y-100564250D01*
X146988072Y-100000000D01*
X146975812Y-99875518D01*
X146939502Y-99755820D01*
X146880537Y-99645506D01*
X146801185Y-99548815D01*
X146704494Y-99469463D01*
X146594180Y-99410498D01*
X146521620Y-99388487D01*
X146653475Y-99256632D01*
X146815990Y-99013411D01*
X146927932Y-98743158D01*
X146985000Y-98456260D01*
X146985000Y-98163740D01*
X146927932Y-97876842D01*
X146815990Y-97606589D01*
X146653475Y-97363368D01*
X146446632Y-97156525D01*
X146272240Y-97040000D01*
X146446632Y-96923475D01*
X146653475Y-96716632D01*
X146815990Y-96473411D01*
X146927932Y-96203158D01*
X146985000Y-95916260D01*
X146985000Y-95623740D01*
X146927932Y-95336842D01*
X146815990Y-95066589D01*
X146653475Y-94823368D01*
X146446632Y-94616525D01*
X146272240Y-94500000D01*
X146446632Y-94383475D01*
X146653475Y-94176632D01*
X146815990Y-93933411D01*
X146927932Y-93663158D01*
X146985000Y-93376260D01*
X146985000Y-93083740D01*
X146927932Y-92796842D01*
X146815990Y-92526589D01*
X146653475Y-92283368D01*
X146446632Y-92076525D01*
X146272240Y-91960000D01*
X146446632Y-91843475D01*
X146653475Y-91636632D01*
X146815990Y-91393411D01*
X146927932Y-91123158D01*
X146985000Y-90836260D01*
X146985000Y-90543740D01*
X146927932Y-90256842D01*
X146815990Y-89986589D01*
X146653475Y-89743368D01*
X146446632Y-89536525D01*
X146203411Y-89374010D01*
X145933158Y-89262068D01*
X145646260Y-89205000D01*
X145353740Y-89205000D01*
X145066842Y-89262068D01*
X144796589Y-89374010D01*
X144729197Y-89419040D01*
X136885124Y-81574967D01*
X138209000Y-81574967D01*
X138209000Y-81897033D01*
X138271832Y-82212912D01*
X138395082Y-82510463D01*
X138574013Y-82778252D01*
X138801748Y-83005987D01*
X139069537Y-83184918D01*
X139367088Y-83308168D01*
X139682967Y-83371000D01*
X140005033Y-83371000D01*
X140320912Y-83308168D01*
X140618463Y-83184918D01*
X140886252Y-83005987D01*
X141113987Y-82778252D01*
X141292918Y-82510463D01*
X141416168Y-82212912D01*
X141479000Y-81897033D01*
X141479000Y-81574967D01*
X141416168Y-81259088D01*
X141292918Y-80961537D01*
X141113987Y-80693748D01*
X140886252Y-80466013D01*
X140618463Y-80287082D01*
X140320912Y-80163832D01*
X140005033Y-80101000D01*
X139682967Y-80101000D01*
X139367088Y-80163832D01*
X139069537Y-80287082D01*
X138801748Y-80466013D01*
X138574013Y-80693748D01*
X138395082Y-80961537D01*
X138271832Y-81259088D01*
X138209000Y-81574967D01*
X136885124Y-81574967D01*
X132385124Y-77074967D01*
X138209000Y-77074967D01*
X138209000Y-77397033D01*
X138271832Y-77712912D01*
X138395082Y-78010463D01*
X138574013Y-78278252D01*
X138801748Y-78505987D01*
X139069537Y-78684918D01*
X139367088Y-78808168D01*
X139682967Y-78871000D01*
X140005033Y-78871000D01*
X140320912Y-78808168D01*
X140618463Y-78684918D01*
X140886252Y-78505987D01*
X141113987Y-78278252D01*
X141285877Y-78021000D01*
X144902123Y-78021000D01*
X145074013Y-78278252D01*
X145301748Y-78505987D01*
X145569537Y-78684918D01*
X145867088Y-78808168D01*
X146182967Y-78871000D01*
X146505033Y-78871000D01*
X146808483Y-78810640D01*
X147415001Y-79417159D01*
X147415001Y-80494762D01*
X147386252Y-80466013D01*
X147118463Y-80287082D01*
X146820912Y-80163832D01*
X146505033Y-80101000D01*
X146182967Y-80101000D01*
X145867088Y-80163832D01*
X145569537Y-80287082D01*
X145301748Y-80466013D01*
X145074013Y-80693748D01*
X144895082Y-80961537D01*
X144771832Y-81259088D01*
X144709000Y-81574967D01*
X144709000Y-81897033D01*
X144771832Y-82212912D01*
X144895082Y-82510463D01*
X145074013Y-82778252D01*
X145301748Y-83005987D01*
X145569537Y-83184918D01*
X145867088Y-83308168D01*
X146182967Y-83371000D01*
X146505033Y-83371000D01*
X146820912Y-83308168D01*
X147118463Y-83184918D01*
X147386252Y-83005987D01*
X147415001Y-82977238D01*
X147415000Y-103424844D01*
X147374843Y-103465000D01*
X144278711Y-103465000D01*
X144259774Y-103446063D01*
X144090256Y-103332795D01*
X143901898Y-103254774D01*
X143701939Y-103215000D01*
X143498061Y-103215000D01*
X143298102Y-103254774D01*
X143109744Y-103332795D01*
X142940226Y-103446063D01*
X142796063Y-103590226D01*
X142682795Y-103759744D01*
X142604774Y-103948102D01*
X142565000Y-104148061D01*
X142565000Y-104351939D01*
X142604774Y-104551898D01*
X142682795Y-104740256D01*
X142796063Y-104909774D01*
X142940226Y-105053937D01*
X143109744Y-105167205D01*
X143298102Y-105245226D01*
X143498061Y-105285000D01*
X143701939Y-105285000D01*
X143901898Y-105245226D01*
X144090256Y-105167205D01*
X144259774Y-105053937D01*
X144278711Y-105035000D01*
X147661447Y-105035000D01*
X147700000Y-105038797D01*
X147738553Y-105035000D01*
X147738561Y-105035000D01*
X147853887Y-105023641D01*
X148001860Y-104978754D01*
X148138233Y-104905862D01*
X148257764Y-104807764D01*
X148282347Y-104777810D01*
X148727806Y-104332350D01*
X148757764Y-104307764D01*
X148855862Y-104188233D01*
X148928754Y-104051860D01*
X148960217Y-103948141D01*
X148973642Y-103903887D01*
X148984637Y-103792246D01*
X148985000Y-103788561D01*
X148985000Y-103788556D01*
X148988797Y-103750000D01*
X148985000Y-103711444D01*
X148985000Y-79130552D01*
X148988797Y-79091999D01*
X148985000Y-79053446D01*
X148985000Y-79053439D01*
X148973641Y-78938113D01*
X148928754Y-78790140D01*
X148855862Y-78653767D01*
X148757764Y-78534236D01*
X148727816Y-78509658D01*
X147918640Y-77700483D01*
X147979000Y-77397033D01*
X147979000Y-77074967D01*
X147916168Y-76759088D01*
X147792918Y-76461537D01*
X147613987Y-76193748D01*
X147386252Y-75966013D01*
X147118463Y-75787082D01*
X146820912Y-75663832D01*
X146505033Y-75601000D01*
X146182967Y-75601000D01*
X145867088Y-75663832D01*
X145569537Y-75787082D01*
X145301748Y-75966013D01*
X145074013Y-76193748D01*
X144902123Y-76451000D01*
X141285877Y-76451000D01*
X141113987Y-76193748D01*
X140886252Y-75966013D01*
X140618463Y-75787082D01*
X140320912Y-75663832D01*
X140005033Y-75601000D01*
X139682967Y-75601000D01*
X139367088Y-75663832D01*
X139069537Y-75787082D01*
X138801748Y-75966013D01*
X138574013Y-76193748D01*
X138395082Y-76461537D01*
X138271832Y-76759088D01*
X138209000Y-77074967D01*
X132385124Y-77074967D01*
X131735000Y-76424843D01*
X131735000Y-76398061D01*
X131695226Y-76198102D01*
X131617205Y-76009744D01*
X131503937Y-75840226D01*
X131361772Y-75698061D01*
X132415000Y-75698061D01*
X132415000Y-75901939D01*
X132454774Y-76101898D01*
X132532795Y-76290256D01*
X132646063Y-76459774D01*
X132790226Y-76603937D01*
X132959744Y-76717205D01*
X133148102Y-76795226D01*
X133348061Y-76835000D01*
X133551939Y-76835000D01*
X133751898Y-76795226D01*
X133940256Y-76717205D01*
X134109774Y-76603937D01*
X134253937Y-76459774D01*
X134367205Y-76290256D01*
X134445226Y-76101898D01*
X134485000Y-75901939D01*
X134485000Y-75875157D01*
X136888744Y-73471413D01*
X139088192Y-73471413D01*
X139183956Y-73735814D01*
X139473571Y-73876704D01*
X139785108Y-73958384D01*
X140106595Y-73977718D01*
X140425675Y-73933961D01*
X140730088Y-73828795D01*
X140904044Y-73735814D01*
X140999808Y-73471413D01*
X145588192Y-73471413D01*
X145683956Y-73735814D01*
X145973571Y-73876704D01*
X146285108Y-73958384D01*
X146606595Y-73977718D01*
X146925675Y-73933961D01*
X147230088Y-73828795D01*
X147404044Y-73735814D01*
X147499808Y-73471413D01*
X146544000Y-72515605D01*
X145588192Y-73471413D01*
X140999808Y-73471413D01*
X140044000Y-72515605D01*
X139088192Y-73471413D01*
X136888744Y-73471413D01*
X138470856Y-71889302D01*
X138421616Y-72077108D01*
X138402282Y-72398595D01*
X138446039Y-72717675D01*
X138551205Y-73022088D01*
X138644186Y-73196044D01*
X138908587Y-73291808D01*
X139864395Y-72336000D01*
X140223605Y-72336000D01*
X141179413Y-73291808D01*
X141443814Y-73196044D01*
X141584704Y-72906429D01*
X141666384Y-72594892D01*
X141678189Y-72398595D01*
X144902282Y-72398595D01*
X144946039Y-72717675D01*
X145051205Y-73022088D01*
X145144186Y-73196044D01*
X145408587Y-73291808D01*
X146364395Y-72336000D01*
X146723605Y-72336000D01*
X147679413Y-73291808D01*
X147943814Y-73196044D01*
X148084704Y-72906429D01*
X148166384Y-72594892D01*
X148185718Y-72273405D01*
X148141961Y-71954325D01*
X148036795Y-71649912D01*
X147943814Y-71475956D01*
X147679413Y-71380192D01*
X146723605Y-72336000D01*
X146364395Y-72336000D01*
X145408587Y-71380192D01*
X145144186Y-71475956D01*
X145003296Y-71765571D01*
X144921616Y-72077108D01*
X144902282Y-72398595D01*
X141678189Y-72398595D01*
X141685718Y-72273405D01*
X141641961Y-71954325D01*
X141536795Y-71649912D01*
X141443814Y-71475956D01*
X141179413Y-71380192D01*
X140223605Y-72336000D01*
X139864395Y-72336000D01*
X139850253Y-72321858D01*
X140029858Y-72142253D01*
X140044000Y-72156395D01*
X140999808Y-71200587D01*
X145588192Y-71200587D01*
X146544000Y-72156395D01*
X147499808Y-71200587D01*
X147404044Y-70936186D01*
X147114429Y-70795296D01*
X146802892Y-70713616D01*
X146481405Y-70694282D01*
X146162325Y-70738039D01*
X145857912Y-70843205D01*
X145683956Y-70936186D01*
X145588192Y-71200587D01*
X140999808Y-71200587D01*
X140904044Y-70936186D01*
X140614429Y-70795296D01*
X140302892Y-70713616D01*
X139981405Y-70694282D01*
X139662325Y-70738039D01*
X139600897Y-70759261D01*
X140571817Y-69788341D01*
X140601764Y-69763764D01*
X140644438Y-69711767D01*
X140690179Y-69656031D01*
X140699862Y-69644233D01*
X140772754Y-69507860D01*
X140817641Y-69359887D01*
X140825487Y-69280224D01*
X141086252Y-69105987D01*
X141313987Y-68878252D01*
X141492918Y-68610463D01*
X141616168Y-68312912D01*
X141679000Y-67997033D01*
X141679000Y-67674967D01*
X144909000Y-67674967D01*
X144909000Y-67997033D01*
X144971832Y-68312912D01*
X145095082Y-68610463D01*
X145274013Y-68878252D01*
X145501748Y-69105987D01*
X145769537Y-69284918D01*
X146067088Y-69408168D01*
X146382967Y-69471000D01*
X146705033Y-69471000D01*
X147020912Y-69408168D01*
X147318463Y-69284918D01*
X147586252Y-69105987D01*
X147813987Y-68878252D01*
X147992918Y-68610463D01*
X148116168Y-68312912D01*
X148179000Y-67997033D01*
X148179000Y-67674967D01*
X148116168Y-67359088D01*
X147992918Y-67061537D01*
X147813987Y-66793748D01*
X147586252Y-66566013D01*
X147318463Y-66387082D01*
X147020912Y-66263832D01*
X146705033Y-66201000D01*
X146382967Y-66201000D01*
X146067088Y-66263832D01*
X145769537Y-66387082D01*
X145501748Y-66566013D01*
X145274013Y-66793748D01*
X145095082Y-67061537D01*
X144971832Y-67359088D01*
X144909000Y-67674967D01*
X141679000Y-67674967D01*
X141616168Y-67359088D01*
X141492918Y-67061537D01*
X141313987Y-66793748D01*
X141086252Y-66566013D01*
X140818463Y-66387082D01*
X140520912Y-66263832D01*
X140205033Y-66201000D01*
X139882967Y-66201000D01*
X139567088Y-66263832D01*
X139269537Y-66387082D01*
X139001748Y-66566013D01*
X138774013Y-66793748D01*
X138595082Y-67061537D01*
X138471832Y-67359088D01*
X138409000Y-67674967D01*
X138409000Y-67997033D01*
X138471832Y-68312912D01*
X138595082Y-68610463D01*
X138774013Y-68878252D01*
X139001748Y-69105987D01*
X139020995Y-69118847D01*
X133374843Y-74765000D01*
X133348061Y-74765000D01*
X133148102Y-74804774D01*
X132959744Y-74882795D01*
X132790226Y-74996063D01*
X132646063Y-75140226D01*
X132532795Y-75309744D01*
X132454774Y-75498102D01*
X132415000Y-75698061D01*
X131361772Y-75698061D01*
X131359774Y-75696063D01*
X131190256Y-75582795D01*
X131001898Y-75504774D01*
X130801939Y-75465000D01*
X130598061Y-75465000D01*
X130398102Y-75504774D01*
X130209744Y-75582795D01*
X130040226Y-75696063D01*
X129896063Y-75840226D01*
X129782795Y-76009744D01*
X129704774Y-76198102D01*
X129689351Y-76275640D01*
X129609774Y-76196063D01*
X129440256Y-76082795D01*
X129251898Y-76004774D01*
X129051939Y-75965000D01*
X128848061Y-75965000D01*
X128648102Y-76004774D01*
X128459744Y-76082795D01*
X128290226Y-76196063D01*
X128146063Y-76340226D01*
X128032795Y-76509744D01*
X127954774Y-76698102D01*
X127915000Y-76898061D01*
X105585000Y-76898061D01*
X105585000Y-76478711D01*
X105603937Y-76459774D01*
X105717205Y-76290256D01*
X105795226Y-76101898D01*
X105835000Y-75901939D01*
X105835000Y-75698061D01*
X105795226Y-75498102D01*
X105717205Y-75309744D01*
X105603937Y-75140226D01*
X105459774Y-74996063D01*
X105290256Y-74882795D01*
X105101898Y-74804774D01*
X104901939Y-74765000D01*
X104698061Y-74765000D01*
X104498102Y-74804774D01*
X104309744Y-74882795D01*
X104140226Y-74996063D01*
X103996063Y-75140226D01*
X103882795Y-75309744D01*
X103835000Y-75425131D01*
X103835000Y-70188552D01*
X103838797Y-70149999D01*
X103835000Y-70111446D01*
X103835000Y-70111439D01*
X103823641Y-69996113D01*
X103778754Y-69848140D01*
X103705862Y-69711767D01*
X103656450Y-69651559D01*
X103632345Y-69622187D01*
X103632342Y-69622184D01*
X103607764Y-69592236D01*
X103577817Y-69567659D01*
X99785000Y-65774843D01*
X99785000Y-65748061D01*
X99745226Y-65548102D01*
X99667205Y-65359744D01*
X99553937Y-65190226D01*
X99409774Y-65046063D01*
X99240256Y-64932795D01*
X99051898Y-64854774D01*
X98851939Y-64815000D01*
X98648061Y-64815000D01*
X98448102Y-64854774D01*
X98259744Y-64932795D01*
X98090226Y-65046063D01*
X97946063Y-65190226D01*
X97832795Y-65359744D01*
X97754774Y-65548102D01*
X97715000Y-65748061D01*
X78324000Y-65748061D01*
X78324000Y-57870777D01*
X79115000Y-57870777D01*
X79115000Y-58429223D01*
X79223948Y-58976939D01*
X79437656Y-59492876D01*
X79747912Y-59957207D01*
X80142793Y-60352088D01*
X80607124Y-60662344D01*
X81123061Y-60876052D01*
X81670777Y-60985000D01*
X82229223Y-60985000D01*
X82776939Y-60876052D01*
X83292876Y-60662344D01*
X83757207Y-60352088D01*
X84152088Y-59957207D01*
X84462344Y-59492876D01*
X84676052Y-58976939D01*
X84785000Y-58429223D01*
X84785000Y-58170777D01*
X144115000Y-58170777D01*
X144115000Y-58729223D01*
X144223948Y-59276939D01*
X144437656Y-59792876D01*
X144747912Y-60257207D01*
X145142793Y-60652088D01*
X145607124Y-60962344D01*
X146123061Y-61176052D01*
X146670777Y-61285000D01*
X147229223Y-61285000D01*
X147776939Y-61176052D01*
X148292876Y-60962344D01*
X148757207Y-60652088D01*
X149152088Y-60257207D01*
X149462344Y-59792876D01*
X149676052Y-59276939D01*
X149785000Y-58729223D01*
X149785000Y-58170777D01*
X149676052Y-57623061D01*
X149462344Y-57107124D01*
X149152088Y-56642793D01*
X148757207Y-56247912D01*
X148292876Y-55937656D01*
X147776939Y-55723948D01*
X147229223Y-55615000D01*
X146670777Y-55615000D01*
X146123061Y-55723948D01*
X145607124Y-55937656D01*
X145142793Y-56247912D01*
X144747912Y-56642793D01*
X144437656Y-57107124D01*
X144223948Y-57623061D01*
X144115000Y-58170777D01*
X84785000Y-58170777D01*
X84785000Y-57870777D01*
X84676052Y-57323061D01*
X84462344Y-56807124D01*
X84152088Y-56342793D01*
X83757207Y-55947912D01*
X83292876Y-55637656D01*
X82776939Y-55423948D01*
X82229223Y-55315000D01*
X81670777Y-55315000D01*
X81123061Y-55423948D01*
X80607124Y-55637656D01*
X80142793Y-55947912D01*
X79747912Y-56342793D01*
X79437656Y-56807124D01*
X79223948Y-57323061D01*
X79115000Y-57870777D01*
X78324000Y-57870777D01*
X78324000Y-54516000D01*
X150473000Y-54516000D01*
X150473000Y-139273000D01*
G37*
X150473000Y-139273000D02*
X78324000Y-139273000D01*
X78324000Y-135920777D01*
X79015000Y-135920777D01*
X79015000Y-136479223D01*
X79123948Y-137026939D01*
X79337656Y-137542876D01*
X79647912Y-138007207D01*
X80042793Y-138402088D01*
X80507124Y-138712344D01*
X81023061Y-138926052D01*
X81570777Y-139035000D01*
X82129223Y-139035000D01*
X82676939Y-138926052D01*
X83192876Y-138712344D01*
X83657207Y-138402088D01*
X84052088Y-138007207D01*
X84362344Y-137542876D01*
X84576052Y-137026939D01*
X84685000Y-136479223D01*
X84685000Y-135920777D01*
X84646655Y-135728000D01*
X119843928Y-135728000D01*
X119856188Y-135852482D01*
X119892498Y-135972180D01*
X119951463Y-136082494D01*
X120030815Y-136179185D01*
X120127506Y-136258537D01*
X120237820Y-136317502D01*
X120357518Y-136353812D01*
X120482000Y-136366072D01*
X121066250Y-136363000D01*
X121225000Y-136204250D01*
X121225000Y-134755000D01*
X120005750Y-134755000D01*
X119847000Y-134913750D01*
X119843928Y-135728000D01*
X84646655Y-135728000D01*
X84576052Y-135373061D01*
X84362344Y-134857124D01*
X84052088Y-134392793D01*
X83657207Y-133997912D01*
X83192876Y-133687656D01*
X82676939Y-133473948D01*
X82129223Y-133365000D01*
X81570777Y-133365000D01*
X81023061Y-133473948D01*
X80507124Y-133687656D01*
X80042793Y-133997912D01*
X79647912Y-134392793D01*
X79337656Y-134857124D01*
X79123948Y-135373061D01*
X79015000Y-135920777D01*
X78324000Y-135920777D01*
X78324000Y-123051740D01*
X86379000Y-123051740D01*
X86379000Y-123344260D01*
X86436068Y-123631158D01*
X86548010Y-123901411D01*
X86710525Y-124144632D01*
X86917368Y-124351475D01*
X87160589Y-124513990D01*
X87430842Y-124625932D01*
X87717740Y-124683000D01*
X88010260Y-124683000D01*
X88297158Y-124625932D01*
X88567411Y-124513990D01*
X88810632Y-124351475D01*
X89017475Y-124144632D01*
X89179990Y-123901411D01*
X89291932Y-123631158D01*
X89349000Y-123344260D01*
X89349000Y-123051740D01*
X93379000Y-123051740D01*
X93379000Y-123344260D01*
X93436068Y-123631158D01*
X93548010Y-123901411D01*
X93710525Y-124144632D01*
X93917368Y-124351475D01*
X94160589Y-124513990D01*
X94430842Y-124625932D01*
X94717740Y-124683000D01*
X95010260Y-124683000D01*
X95297158Y-124625932D01*
X95567411Y-124513990D01*
X95810632Y-124351475D01*
X96017475Y-124144632D01*
X96179990Y-123901411D01*
X96291932Y-123631158D01*
X96349000Y-123344260D01*
X96349000Y-123051740D01*
X96291932Y-122764842D01*
X96179990Y-122494589D01*
X96017475Y-122251368D01*
X95810632Y-122044525D01*
X95567411Y-121882010D01*
X95297158Y-121770068D01*
X95010260Y-121713000D01*
X94717740Y-121713000D01*
X94430842Y-121770068D01*
X94160589Y-121882010D01*
X93917368Y-122044525D01*
X93710525Y-122251368D01*
X93548010Y-122494589D01*
X93436068Y-122764842D01*
X93379000Y-123051740D01*
X89349000Y-123051740D01*
X89291932Y-122764842D01*
X89179990Y-122494589D01*
X89017475Y-122251368D01*
X88810632Y-122044525D01*
X88567411Y-121882010D01*
X88297158Y-121770068D01*
X88010260Y-121713000D01*
X87717740Y-121713000D01*
X87430842Y-121770068D01*
X87160589Y-121882010D01*
X86917368Y-122044525D01*
X86710525Y-122251368D01*
X86548010Y-122494589D01*
X86436068Y-122764842D01*
X86379000Y-123051740D01*
X78324000Y-123051740D01*
X78324000Y-110605740D01*
X86379000Y-110605740D01*
X86379000Y-110898260D01*
X86436068Y-111185158D01*
X86548010Y-111455411D01*
X86710525Y-111698632D01*
X86917368Y-111905475D01*
X87160589Y-112067990D01*
X87430842Y-112179932D01*
X87717740Y-112237000D01*
X88010260Y-112237000D01*
X88297158Y-112179932D01*
X88567411Y-112067990D01*
X88810632Y-111905475D01*
X89017475Y-111698632D01*
X89179990Y-111455411D01*
X89291932Y-111185158D01*
X89349000Y-110898260D01*
X89349000Y-110605740D01*
X93379000Y-110605740D01*
X93379000Y-110898260D01*
X93436068Y-111185158D01*
X93548010Y-111455411D01*
X93710525Y-111698632D01*
X93917368Y-111905475D01*
X94160589Y-112067990D01*
X94430842Y-112179932D01*
X94717740Y-112237000D01*
X95010260Y-112237000D01*
X95297158Y-112179932D01*
X95567411Y-112067990D01*
X95810632Y-111905475D01*
X96017475Y-111698632D01*
X96179990Y-111455411D01*
X96291932Y-111185158D01*
X96349000Y-110898260D01*
X96349000Y-110605740D01*
X96291932Y-110318842D01*
X96179990Y-110048589D01*
X96017475Y-109805368D01*
X95810632Y-109598525D01*
X95567411Y-109436010D01*
X95297158Y-109324068D01*
X95010260Y-109267000D01*
X94717740Y-109267000D01*
X94430842Y-109324068D01*
X94160589Y-109436010D01*
X93917368Y-109598525D01*
X93710525Y-109805368D01*
X93548010Y-110048589D01*
X93436068Y-110318842D01*
X93379000Y-110605740D01*
X89349000Y-110605740D01*
X89291932Y-110318842D01*
X89179990Y-110048589D01*
X89017475Y-109805368D01*
X88810632Y-109598525D01*
X88567411Y-109436010D01*
X88297158Y-109324068D01*
X88010260Y-109267000D01*
X87717740Y-109267000D01*
X87430842Y-109324068D01*
X87160589Y-109436010D01*
X86917368Y-109598525D01*
X86710525Y-109805368D01*
X86548010Y-110048589D01*
X86436068Y-110318842D01*
X86379000Y-110605740D01*
X78324000Y-110605740D01*
X78324000Y-101698061D01*
X99115000Y-101698061D01*
X99115000Y-101901939D01*
X99154774Y-102101898D01*
X99232795Y-102290256D01*
X99346063Y-102459774D01*
X99490226Y-102603937D01*
X99659744Y-102717205D01*
X99848102Y-102795226D01*
X100048061Y-102835000D01*
X100251939Y-102835000D01*
X100451898Y-102795226D01*
X100640256Y-102717205D01*
X100809774Y-102603937D01*
X100953937Y-102459774D01*
X101067205Y-102290256D01*
X101145226Y-102101898D01*
X101183397Y-101910000D01*
X115815198Y-101910000D01*
X114789002Y-102936196D01*
X114759999Y-102959999D01*
X114709735Y-103021246D01*
X114665026Y-103075724D01*
X114619979Y-103160000D01*
X114594454Y-103207754D01*
X114550997Y-103351015D01*
X114540000Y-103462668D01*
X114540000Y-103462678D01*
X114536324Y-103500000D01*
X114540000Y-103537323D01*
X114540001Y-108335197D01*
X112285199Y-110590000D01*
X107003711Y-110590000D01*
X106959774Y-110546063D01*
X106790256Y-110432795D01*
X106601898Y-110354774D01*
X106401939Y-110315000D01*
X106198061Y-110315000D01*
X105998102Y-110354774D01*
X105809744Y-110432795D01*
X105640226Y-110546063D01*
X105496063Y-110690226D01*
X105382795Y-110859744D01*
X105304774Y-111048102D01*
X105265000Y-111248061D01*
X105265000Y-111451939D01*
X105304774Y-111651898D01*
X105382795Y-111840256D01*
X105496063Y-112009774D01*
X105640226Y-112153937D01*
X105809744Y-112267205D01*
X105998102Y-112345226D01*
X106097513Y-112365000D01*
X101438454Y-112365000D01*
X101390256Y-112332795D01*
X101201898Y-112254774D01*
X101001939Y-112215000D01*
X100798061Y-112215000D01*
X100598102Y-112254774D01*
X100409744Y-112332795D01*
X100240226Y-112446063D01*
X100096063Y-112590226D01*
X99982795Y-112759744D01*
X99904774Y-112948102D01*
X99865000Y-113148061D01*
X99865000Y-113351939D01*
X99904774Y-113551898D01*
X99982795Y-113740256D01*
X100096063Y-113909774D01*
X100240226Y-114053937D01*
X100409744Y-114167205D01*
X100598102Y-114245226D01*
X100798061Y-114285000D01*
X101001939Y-114285000D01*
X101201898Y-114245226D01*
X101390256Y-114167205D01*
X101559774Y-114053937D01*
X101678711Y-113935000D01*
X109621289Y-113935000D01*
X109640226Y-113953937D01*
X109809744Y-114067205D01*
X109998102Y-114145226D01*
X110198061Y-114185000D01*
X110240199Y-114185000D01*
X110035199Y-114390000D01*
X108553711Y-114390000D01*
X108509774Y-114346063D01*
X108340256Y-114232795D01*
X108151898Y-114154774D01*
X107951939Y-114115000D01*
X107748061Y-114115000D01*
X107548102Y-114154774D01*
X107359744Y-114232795D01*
X107190226Y-114346063D01*
X107046063Y-114490226D01*
X106932795Y-114659744D01*
X106854774Y-114848102D01*
X106815000Y-115048061D01*
X106815000Y-115251939D01*
X106854774Y-115451898D01*
X106932795Y-115640256D01*
X107046063Y-115809774D01*
X107076289Y-115840000D01*
X106447593Y-115840000D01*
X106485000Y-115651939D01*
X106485000Y-115448061D01*
X106445226Y-115248102D01*
X106367205Y-115059744D01*
X106253937Y-114890226D01*
X106109774Y-114746063D01*
X105940256Y-114632795D01*
X105751898Y-114554774D01*
X105551939Y-114515000D01*
X105348061Y-114515000D01*
X105148102Y-114554774D01*
X104959744Y-114632795D01*
X104790226Y-114746063D01*
X104646063Y-114890226D01*
X104532795Y-115059744D01*
X104454774Y-115248102D01*
X104415000Y-115448061D01*
X104415000Y-115651939D01*
X104452407Y-115840000D01*
X102637322Y-115840000D01*
X102599999Y-115836324D01*
X102562676Y-115840000D01*
X102562667Y-115840000D01*
X102451014Y-115850997D01*
X102307753Y-115894454D01*
X102175724Y-115965026D01*
X102173684Y-115966700D01*
X102088996Y-116036201D01*
X102088992Y-116036205D01*
X102059999Y-116059999D01*
X102036205Y-116088992D01*
X100610198Y-117515000D01*
X100548061Y-117515000D01*
X100348102Y-117554774D01*
X100159744Y-117632795D01*
X99990226Y-117746063D01*
X99846063Y-117890226D01*
X99732795Y-118059744D01*
X99654774Y-118248102D01*
X99615000Y-118448061D01*
X99615000Y-118651939D01*
X99654774Y-118851898D01*
X99732795Y-119040256D01*
X99846063Y-119209774D01*
X99990226Y-119353937D01*
X100159744Y-119467205D01*
X100348102Y-119545226D01*
X100548061Y-119585000D01*
X100751939Y-119585000D01*
X100951898Y-119545226D01*
X101140256Y-119467205D01*
X101309774Y-119353937D01*
X101453937Y-119209774D01*
X101567205Y-119040256D01*
X101645226Y-118851898D01*
X101685000Y-118651939D01*
X101685000Y-118589802D01*
X102914803Y-117360000D01*
X105412667Y-117360000D01*
X105450000Y-117363677D01*
X105487333Y-117360000D01*
X109496289Y-117360000D01*
X109540226Y-117403937D01*
X109709744Y-117517205D01*
X109896374Y-117594510D01*
X107139003Y-120351881D01*
X107109999Y-120375684D01*
X107054871Y-120442859D01*
X107015026Y-120491409D01*
X106944455Y-120623438D01*
X106944454Y-120623439D01*
X106900997Y-120766700D01*
X106890000Y-120878353D01*
X106890000Y-120878363D01*
X106886324Y-120915685D01*
X106890000Y-120953007D01*
X106890001Y-132596288D01*
X106846063Y-132640226D01*
X106732795Y-132809744D01*
X106654774Y-132998102D01*
X106615000Y-133198061D01*
X106615000Y-133401939D01*
X106654774Y-133601898D01*
X106732795Y-133790256D01*
X106846063Y-133959774D01*
X106990226Y-134103937D01*
X107159744Y-134217205D01*
X107348102Y-134295226D01*
X107548061Y-134335000D01*
X107751939Y-134335000D01*
X107951898Y-134295226D01*
X108140256Y-134217205D01*
X108309774Y-134103937D01*
X108453937Y-133959774D01*
X108567205Y-133790256D01*
X108645226Y-133601898D01*
X108659925Y-133528000D01*
X119843928Y-133528000D01*
X119847000Y-134342250D01*
X120005750Y-134501000D01*
X121225000Y-134501000D01*
X121225000Y-133051750D01*
X121479000Y-133051750D01*
X121479000Y-134501000D01*
X121499000Y-134501000D01*
X121499000Y-134755000D01*
X121479000Y-134755000D01*
X121479000Y-136204250D01*
X121637750Y-136363000D01*
X122222000Y-136366072D01*
X122346482Y-136353812D01*
X122466180Y-136317502D01*
X122576494Y-136258537D01*
X122673185Y-136179185D01*
X122752537Y-136082494D01*
X122811502Y-135972180D01*
X122824615Y-135928953D01*
X123051822Y-136115417D01*
X123313276Y-136255166D01*
X123596969Y-136341224D01*
X123892000Y-136370282D01*
X124187032Y-136341224D01*
X124470725Y-136255166D01*
X124732179Y-136115417D01*
X124961345Y-135927345D01*
X125149417Y-135698179D01*
X125162000Y-135674638D01*
X125174583Y-135698179D01*
X125362655Y-135927345D01*
X125591822Y-136115417D01*
X125853276Y-136255166D01*
X126136969Y-136341224D01*
X126432000Y-136370282D01*
X126727032Y-136341224D01*
X127010725Y-136255166D01*
X127272179Y-136115417D01*
X127501345Y-135927345D01*
X127689417Y-135698179D01*
X127702000Y-135674638D01*
X127714583Y-135698179D01*
X127902655Y-135927345D01*
X128131822Y-136115417D01*
X128393276Y-136255166D01*
X128676969Y-136341224D01*
X128972000Y-136370282D01*
X129267032Y-136341224D01*
X129550725Y-136255166D01*
X129812179Y-136115417D01*
X130041345Y-135927345D01*
X130210871Y-135720777D01*
X144465000Y-135720777D01*
X144465000Y-136279223D01*
X144573948Y-136826939D01*
X144787656Y-137342876D01*
X145097912Y-137807207D01*
X145492793Y-138202088D01*
X145957124Y-138512344D01*
X146473061Y-138726052D01*
X147020777Y-138835000D01*
X147579223Y-138835000D01*
X148126939Y-138726052D01*
X148642876Y-138512344D01*
X149107207Y-138202088D01*
X149502088Y-137807207D01*
X149812344Y-137342876D01*
X150026052Y-136826939D01*
X150135000Y-136279223D01*
X150135000Y-135720777D01*
X150026052Y-135173061D01*
X149812344Y-134657124D01*
X149502088Y-134192793D01*
X149107207Y-133797912D01*
X148642876Y-133487656D01*
X148126939Y-133273948D01*
X147579223Y-133165000D01*
X147020777Y-133165000D01*
X146473061Y-133273948D01*
X145957124Y-133487656D01*
X145492793Y-133797912D01*
X145097912Y-134192793D01*
X144787656Y-134657124D01*
X144573948Y-135173061D01*
X144465000Y-135720777D01*
X130210871Y-135720777D01*
X130229417Y-135698179D01*
X130369166Y-135436724D01*
X130455224Y-135153031D01*
X130477000Y-134931935D01*
X130477000Y-134324064D01*
X130455224Y-134102968D01*
X130369166Y-133819275D01*
X130229417Y-133557821D01*
X130041345Y-133328655D01*
X129812178Y-133140583D01*
X129550724Y-133000834D01*
X129267031Y-132914776D01*
X128972000Y-132885718D01*
X128676968Y-132914776D01*
X128393275Y-133000834D01*
X128131821Y-133140583D01*
X127902655Y-133328655D01*
X127714583Y-133557822D01*
X127702000Y-133581363D01*
X127689417Y-133557821D01*
X127501345Y-133328655D01*
X127272178Y-133140583D01*
X127010724Y-133000834D01*
X126727031Y-132914776D01*
X126432000Y-132885718D01*
X126136968Y-132914776D01*
X125853275Y-133000834D01*
X125591821Y-133140583D01*
X125362655Y-133328655D01*
X125174583Y-133557822D01*
X125162000Y-133581363D01*
X125149417Y-133557821D01*
X124961345Y-133328655D01*
X124732178Y-133140583D01*
X124470724Y-133000834D01*
X124187031Y-132914776D01*
X123892000Y-132885718D01*
X123596968Y-132914776D01*
X123313275Y-133000834D01*
X123051821Y-133140583D01*
X122824615Y-133327047D01*
X122811502Y-133283820D01*
X122752537Y-133173506D01*
X122673185Y-133076815D01*
X122576494Y-132997463D01*
X122466180Y-132938498D01*
X122346482Y-132902188D01*
X122222000Y-132889928D01*
X121637750Y-132893000D01*
X121479000Y-133051750D01*
X121225000Y-133051750D01*
X121066250Y-132893000D01*
X120482000Y-132889928D01*
X120357518Y-132902188D01*
X120237820Y-132938498D01*
X120127506Y-132997463D01*
X120030815Y-133076815D01*
X119951463Y-133173506D01*
X119892498Y-133283820D01*
X119856188Y-133403518D01*
X119843928Y-133528000D01*
X108659925Y-133528000D01*
X108685000Y-133401939D01*
X108685000Y-133198061D01*
X108645226Y-132998102D01*
X108567205Y-132809744D01*
X108453937Y-132640226D01*
X108410000Y-132596289D01*
X108410000Y-125198061D01*
X122165000Y-125198061D01*
X122165000Y-125401939D01*
X122204774Y-125601898D01*
X122282795Y-125790256D01*
X122396063Y-125959774D01*
X122540226Y-126103937D01*
X122709744Y-126217205D01*
X122898102Y-126295226D01*
X123098061Y-126335000D01*
X123301939Y-126335000D01*
X123501898Y-126295226D01*
X123690256Y-126217205D01*
X123859774Y-126103937D01*
X124003937Y-125959774D01*
X124117205Y-125790256D01*
X124195226Y-125601898D01*
X124235000Y-125401939D01*
X124235000Y-125198061D01*
X124195226Y-124998102D01*
X124117205Y-124809744D01*
X124003937Y-124640226D01*
X123960000Y-124596289D01*
X123960000Y-119264801D01*
X127539802Y-115685000D01*
X127601939Y-115685000D01*
X127801898Y-115645226D01*
X127990256Y-115567205D01*
X128159774Y-115453937D01*
X128303937Y-115309774D01*
X128417205Y-115140256D01*
X128495226Y-114951898D01*
X128535000Y-114751939D01*
X128535000Y-114725487D01*
X129140000Y-115330487D01*
X129140001Y-123012805D01*
X129090226Y-123046063D01*
X128946063Y-123190226D01*
X128832795Y-123359744D01*
X128754774Y-123548102D01*
X128715000Y-123748061D01*
X128715000Y-123951939D01*
X128754774Y-124151898D01*
X128832795Y-124340256D01*
X128946063Y-124509774D01*
X129090226Y-124653937D01*
X129259744Y-124767205D01*
X129448102Y-124845226D01*
X129648061Y-124885000D01*
X129851939Y-124885000D01*
X130051898Y-124845226D01*
X130240256Y-124767205D01*
X130409774Y-124653937D01*
X130553937Y-124509774D01*
X130667205Y-124340256D01*
X130745226Y-124151898D01*
X130785000Y-123951939D01*
X130785000Y-123748061D01*
X130745226Y-123548102D01*
X130667205Y-123359744D01*
X130660000Y-123348961D01*
X130660000Y-115053007D01*
X130663676Y-115015684D01*
X130660000Y-114978361D01*
X130660000Y-114978352D01*
X130649003Y-114866699D01*
X130605546Y-114723438D01*
X130591613Y-114697371D01*
X130534974Y-114591408D01*
X130463799Y-114504682D01*
X130440001Y-114475684D01*
X130411004Y-114451887D01*
X127741271Y-111782155D01*
X127795226Y-111651898D01*
X127808809Y-111583610D01*
X131340000Y-115114802D01*
X131340001Y-124896288D01*
X131296063Y-124940226D01*
X131182795Y-125109744D01*
X131104774Y-125298102D01*
X131065000Y-125498061D01*
X131065000Y-125701939D01*
X131104774Y-125901898D01*
X131182795Y-126090256D01*
X131296063Y-126259774D01*
X131440226Y-126403937D01*
X131609744Y-126517205D01*
X131798102Y-126595226D01*
X131998061Y-126635000D01*
X132201939Y-126635000D01*
X132401898Y-126595226D01*
X132590256Y-126517205D01*
X132759774Y-126403937D01*
X132903937Y-126259774D01*
X133017205Y-126090256D01*
X133095226Y-125901898D01*
X133135000Y-125701939D01*
X133135000Y-125498061D01*
X133095226Y-125298102D01*
X133017205Y-125109744D01*
X132903937Y-124940226D01*
X132860000Y-124896289D01*
X132860000Y-118213589D01*
X139165000Y-118213589D01*
X139165000Y-118486411D01*
X139218225Y-118753989D01*
X139322629Y-119006043D01*
X139474201Y-119232886D01*
X139667114Y-119425799D01*
X139893957Y-119577371D01*
X140146011Y-119681775D01*
X140413589Y-119735000D01*
X140686411Y-119735000D01*
X140953989Y-119681775D01*
X141206043Y-119577371D01*
X141432886Y-119425799D01*
X141625799Y-119232886D01*
X141777371Y-119006043D01*
X141881775Y-118753989D01*
X141935000Y-118486411D01*
X141935000Y-118213589D01*
X141881775Y-117946011D01*
X141777371Y-117693957D01*
X141625799Y-117467114D01*
X141432886Y-117274201D01*
X141206043Y-117122629D01*
X140953989Y-117018225D01*
X140686411Y-116965000D01*
X140413589Y-116965000D01*
X140146011Y-117018225D01*
X139893957Y-117122629D01*
X139667114Y-117274201D01*
X139474201Y-117467114D01*
X139322629Y-117693957D01*
X139218225Y-117946011D01*
X139165000Y-118213589D01*
X132860000Y-118213589D01*
X132860000Y-114837322D01*
X132863676Y-114799999D01*
X132860000Y-114762676D01*
X132860000Y-114762667D01*
X132849003Y-114651014D01*
X132805546Y-114507753D01*
X132734974Y-114375724D01*
X132640001Y-114259999D01*
X132611004Y-114236202D01*
X131708391Y-113333589D01*
X139165000Y-113333589D01*
X139165000Y-113606411D01*
X139218225Y-113873989D01*
X139322629Y-114126043D01*
X139474201Y-114352886D01*
X139667114Y-114545799D01*
X139893957Y-114697371D01*
X140146011Y-114801775D01*
X140413589Y-114855000D01*
X140686411Y-114855000D01*
X140953989Y-114801775D01*
X141206043Y-114697371D01*
X141432886Y-114545799D01*
X141625799Y-114352886D01*
X141777371Y-114126043D01*
X141881775Y-113873989D01*
X141935000Y-113606411D01*
X141935000Y-113333589D01*
X141881775Y-113066011D01*
X141777371Y-112813957D01*
X141625799Y-112587114D01*
X141432886Y-112394201D01*
X141206043Y-112242629D01*
X140953989Y-112138225D01*
X140686411Y-112085000D01*
X140413589Y-112085000D01*
X140146011Y-112138225D01*
X139893957Y-112242629D01*
X139667114Y-112394201D01*
X139474201Y-112587114D01*
X139322629Y-112813957D01*
X139218225Y-113066011D01*
X139165000Y-113333589D01*
X131708391Y-113333589D01*
X127563804Y-109189003D01*
X127540001Y-109159999D01*
X127424276Y-109065026D01*
X127292247Y-108994454D01*
X127148986Y-108950997D01*
X127037333Y-108940000D01*
X127037322Y-108940000D01*
X127000000Y-108936324D01*
X126962678Y-108940000D01*
X126253711Y-108940000D01*
X126209774Y-108896063D01*
X126040256Y-108782795D01*
X125851898Y-108704774D01*
X125651939Y-108665000D01*
X125448061Y-108665000D01*
X125248102Y-108704774D01*
X125059744Y-108782795D01*
X124890226Y-108896063D01*
X124746063Y-109040226D01*
X124632795Y-109209744D01*
X124554774Y-109398102D01*
X124515000Y-109598061D01*
X124515000Y-109801939D01*
X124554774Y-110001898D01*
X124632795Y-110190256D01*
X124746063Y-110359774D01*
X124890226Y-110503937D01*
X125059744Y-110617205D01*
X125248102Y-110695226D01*
X125448061Y-110735000D01*
X125651939Y-110735000D01*
X125851898Y-110695226D01*
X126040256Y-110617205D01*
X126127134Y-110559155D01*
X125996063Y-110690226D01*
X125882795Y-110859744D01*
X125804774Y-111048102D01*
X125765000Y-111248061D01*
X125765000Y-111451939D01*
X125804774Y-111651898D01*
X125882795Y-111840256D01*
X125996063Y-112009774D01*
X126051013Y-112064724D01*
X126094454Y-112207932D01*
X126119037Y-112253921D01*
X126165026Y-112339961D01*
X126236201Y-112426687D01*
X126260000Y-112455686D01*
X126288998Y-112479484D01*
X127424514Y-113615000D01*
X127398061Y-113615000D01*
X127198102Y-113654774D01*
X127009744Y-113732795D01*
X126840226Y-113846063D01*
X126696063Y-113990226D01*
X126582795Y-114159744D01*
X126504774Y-114348102D01*
X126465000Y-114548061D01*
X126465000Y-114610198D01*
X122689003Y-118386196D01*
X122659999Y-118409999D01*
X122628763Y-118448061D01*
X122565026Y-118525724D01*
X122497562Y-118651939D01*
X122494454Y-118657754D01*
X122450997Y-118801015D01*
X122440000Y-118912668D01*
X122440000Y-118912678D01*
X122436324Y-118950000D01*
X122440000Y-118987323D01*
X122440001Y-124596288D01*
X122396063Y-124640226D01*
X122282795Y-124809744D01*
X122204774Y-124998102D01*
X122165000Y-125198061D01*
X108410000Y-125198061D01*
X108410000Y-121230486D01*
X123611003Y-106029484D01*
X123640001Y-106005686D01*
X123734974Y-105889961D01*
X123805546Y-105757932D01*
X123848987Y-105614724D01*
X123903937Y-105559774D01*
X124017205Y-105390256D01*
X124095226Y-105201898D01*
X124135000Y-105001939D01*
X124135000Y-104798061D01*
X124095226Y-104598102D01*
X124017205Y-104409744D01*
X123903937Y-104240226D01*
X123759774Y-104096063D01*
X123590256Y-103982795D01*
X123401898Y-103904774D01*
X123201939Y-103865000D01*
X122998061Y-103865000D01*
X122798102Y-103904774D01*
X122609744Y-103982795D01*
X122440226Y-104096063D01*
X122296063Y-104240226D01*
X122182795Y-104409744D01*
X122104774Y-104598102D01*
X122065000Y-104798061D01*
X122065000Y-105001939D01*
X122104774Y-105201898D01*
X122158728Y-105332155D01*
X120210000Y-107280883D01*
X120210000Y-105053711D01*
X120253937Y-105009774D01*
X120367205Y-104840256D01*
X120445226Y-104651898D01*
X120485000Y-104451939D01*
X120485000Y-104248061D01*
X120445226Y-104048102D01*
X120367205Y-103859744D01*
X120253937Y-103690226D01*
X120109774Y-103546063D01*
X119940256Y-103432795D01*
X119751898Y-103354774D01*
X119551939Y-103315000D01*
X119408533Y-103315000D01*
X119395226Y-103248102D01*
X119317205Y-103059744D01*
X119203937Y-102890226D01*
X119059774Y-102746063D01*
X118890256Y-102632795D01*
X118701898Y-102554774D01*
X118675534Y-102549530D01*
X118685000Y-102501939D01*
X118685000Y-102298061D01*
X118645226Y-102098102D01*
X118567205Y-101909744D01*
X118501821Y-101811890D01*
X118503937Y-101809774D01*
X118577285Y-101700000D01*
X144011928Y-101700000D01*
X144024188Y-101824482D01*
X144060498Y-101944180D01*
X144119463Y-102054494D01*
X144198815Y-102151185D01*
X144295506Y-102230537D01*
X144405820Y-102289502D01*
X144525518Y-102325812D01*
X144650000Y-102338072D01*
X145214250Y-102335000D01*
X145373000Y-102176250D01*
X145373000Y-100977000D01*
X145627000Y-100977000D01*
X145627000Y-102176250D01*
X145785750Y-102335000D01*
X146350000Y-102338072D01*
X146474482Y-102325812D01*
X146594180Y-102289502D01*
X146704494Y-102230537D01*
X146801185Y-102151185D01*
X146880537Y-102054494D01*
X146939502Y-101944180D01*
X146975812Y-101824482D01*
X146988072Y-101700000D01*
X146985000Y-101135750D01*
X146826250Y-100977000D01*
X145627000Y-100977000D01*
X145373000Y-100977000D01*
X144173750Y-100977000D01*
X144015000Y-101135750D01*
X144011928Y-101700000D01*
X118577285Y-101700000D01*
X118617205Y-101640256D01*
X118695226Y-101451898D01*
X118735000Y-101251939D01*
X118735000Y-101048061D01*
X118695226Y-100848102D01*
X118617205Y-100659744D01*
X118551821Y-100561890D01*
X118603937Y-100509774D01*
X118717205Y-100340256D01*
X118795226Y-100151898D01*
X118835000Y-99951939D01*
X118835000Y-99748061D01*
X118795226Y-99548102D01*
X118717205Y-99359744D01*
X118603937Y-99190226D01*
X118459774Y-99046063D01*
X118290256Y-98932795D01*
X118101898Y-98854774D01*
X117901939Y-98815000D01*
X117698061Y-98815000D01*
X117498102Y-98854774D01*
X117309744Y-98932795D01*
X117140226Y-99046063D01*
X117096289Y-99090000D01*
X109664802Y-99090000D01*
X107235000Y-96660199D01*
X107235000Y-96598061D01*
X107195226Y-96398102D01*
X107117205Y-96209744D01*
X107003937Y-96040226D01*
X106859774Y-95896063D01*
X106690256Y-95782795D01*
X106501898Y-95704774D01*
X106301939Y-95665000D01*
X106098061Y-95665000D01*
X105898102Y-95704774D01*
X105709744Y-95782795D01*
X105540226Y-95896063D01*
X105396063Y-96040226D01*
X105282795Y-96209744D01*
X105204774Y-96398102D01*
X105165000Y-96598061D01*
X105165000Y-96801939D01*
X105204774Y-97001898D01*
X105282795Y-97190256D01*
X105396063Y-97359774D01*
X105540226Y-97503937D01*
X105709744Y-97617205D01*
X105898102Y-97695226D01*
X106098061Y-97735000D01*
X106160199Y-97735000D01*
X108786201Y-100361003D01*
X108809998Y-100390000D01*
X100837323Y-100390000D01*
X100800000Y-100386324D01*
X100762677Y-100390000D01*
X100762667Y-100390000D01*
X100651014Y-100400997D01*
X100507753Y-100444454D01*
X100375724Y-100515026D01*
X100259999Y-100609999D01*
X100236200Y-100638998D01*
X100110198Y-100765000D01*
X100048061Y-100765000D01*
X99848102Y-100804774D01*
X99659744Y-100882795D01*
X99490226Y-100996063D01*
X99346063Y-101140226D01*
X99232795Y-101309744D01*
X99154774Y-101498102D01*
X99115000Y-101698061D01*
X78324000Y-101698061D01*
X78324000Y-97905740D01*
X86379000Y-97905740D01*
X86379000Y-98198260D01*
X86436068Y-98485158D01*
X86548010Y-98755411D01*
X86710525Y-98998632D01*
X86917368Y-99205475D01*
X87160589Y-99367990D01*
X87430842Y-99479932D01*
X87717740Y-99537000D01*
X88010260Y-99537000D01*
X88297158Y-99479932D01*
X88567411Y-99367990D01*
X88810632Y-99205475D01*
X89017475Y-98998632D01*
X89179990Y-98755411D01*
X89291932Y-98485158D01*
X89349000Y-98198260D01*
X89349000Y-97905740D01*
X93379000Y-97905740D01*
X93379000Y-98198260D01*
X93436068Y-98485158D01*
X93548010Y-98755411D01*
X93710525Y-98998632D01*
X93917368Y-99205475D01*
X94160589Y-99367990D01*
X94430842Y-99479932D01*
X94717740Y-99537000D01*
X95010260Y-99537000D01*
X95297158Y-99479932D01*
X95567411Y-99367990D01*
X95810632Y-99205475D01*
X96017475Y-98998632D01*
X96179990Y-98755411D01*
X96291932Y-98485158D01*
X96349000Y-98198260D01*
X96349000Y-97905740D01*
X96291932Y-97618842D01*
X96179990Y-97348589D01*
X96017475Y-97105368D01*
X95810632Y-96898525D01*
X95567411Y-96736010D01*
X95297158Y-96624068D01*
X95010260Y-96567000D01*
X94717740Y-96567000D01*
X94430842Y-96624068D01*
X94160589Y-96736010D01*
X93917368Y-96898525D01*
X93710525Y-97105368D01*
X93548010Y-97348589D01*
X93436068Y-97618842D01*
X93379000Y-97905740D01*
X89349000Y-97905740D01*
X89291932Y-97618842D01*
X89179990Y-97348589D01*
X89017475Y-97105368D01*
X88810632Y-96898525D01*
X88567411Y-96736010D01*
X88297158Y-96624068D01*
X88010260Y-96567000D01*
X87717740Y-96567000D01*
X87430842Y-96624068D01*
X87160589Y-96736010D01*
X86917368Y-96898525D01*
X86710525Y-97105368D01*
X86548010Y-97348589D01*
X86436068Y-97618842D01*
X86379000Y-97905740D01*
X78324000Y-97905740D01*
X78324000Y-92098061D01*
X108115000Y-92098061D01*
X108115000Y-92301939D01*
X108154774Y-92501898D01*
X108232795Y-92690256D01*
X108346063Y-92859774D01*
X108490226Y-93003937D01*
X108659744Y-93117205D01*
X108848102Y-93195226D01*
X109048061Y-93235000D01*
X109074843Y-93235000D01*
X113467658Y-97627816D01*
X113492236Y-97657764D01*
X113522184Y-97682342D01*
X113522187Y-97682345D01*
X113537883Y-97695226D01*
X113611767Y-97755862D01*
X113748140Y-97828754D01*
X113861672Y-97863194D01*
X113896112Y-97873641D01*
X113910490Y-97875057D01*
X114011439Y-97885000D01*
X114011446Y-97885000D01*
X114049999Y-97888797D01*
X114088552Y-97885000D01*
X132371289Y-97885000D01*
X132390226Y-97903937D01*
X132559744Y-98017205D01*
X132748102Y-98095226D01*
X132948061Y-98135000D01*
X133151939Y-98135000D01*
X133351898Y-98095226D01*
X133540256Y-98017205D01*
X133709774Y-97903937D01*
X133853937Y-97759774D01*
X133967205Y-97590256D01*
X134045226Y-97401898D01*
X134085000Y-97201939D01*
X134085000Y-96998061D01*
X134045226Y-96798102D01*
X133967205Y-96609744D01*
X133853937Y-96440226D01*
X133709774Y-96296063D01*
X133540256Y-96182795D01*
X133465159Y-96151688D01*
X133485000Y-96051939D01*
X133485000Y-95848061D01*
X133445226Y-95648102D01*
X133367205Y-95459744D01*
X133253937Y-95290226D01*
X133109774Y-95146063D01*
X132940256Y-95032795D01*
X132751898Y-94954774D01*
X132551939Y-94915000D01*
X132525157Y-94915000D01*
X132482346Y-94872189D01*
X132457764Y-94842236D01*
X132338233Y-94744138D01*
X132201860Y-94671246D01*
X132053887Y-94626359D01*
X131938561Y-94615000D01*
X131938553Y-94615000D01*
X131900000Y-94611203D01*
X131861447Y-94615000D01*
X116525158Y-94615000D01*
X116179692Y-94269534D01*
X116301898Y-94245226D01*
X116490256Y-94167205D01*
X116659774Y-94053937D01*
X116803937Y-93909774D01*
X116917205Y-93740256D01*
X116995226Y-93551898D01*
X117035000Y-93351939D01*
X117035000Y-93325157D01*
X118275158Y-92085000D01*
X121071289Y-92085000D01*
X121090226Y-92103937D01*
X121259744Y-92217205D01*
X121448102Y-92295226D01*
X121648061Y-92335000D01*
X121851939Y-92335000D01*
X122051898Y-92295226D01*
X122240256Y-92217205D01*
X122409774Y-92103937D01*
X122553937Y-91959774D01*
X122667205Y-91790256D01*
X122745226Y-91601898D01*
X122785000Y-91401939D01*
X122785000Y-91198061D01*
X122745226Y-90998102D01*
X122667205Y-90809744D01*
X122553937Y-90640226D01*
X122409774Y-90496063D01*
X122240256Y-90382795D01*
X122051898Y-90304774D01*
X121851939Y-90265000D01*
X121648061Y-90265000D01*
X121448102Y-90304774D01*
X121259744Y-90382795D01*
X121090226Y-90496063D01*
X121071289Y-90515000D01*
X117988552Y-90515000D01*
X117949999Y-90511203D01*
X117911446Y-90515000D01*
X117911439Y-90515000D01*
X117810490Y-90524943D01*
X117796112Y-90526359D01*
X117763962Y-90536112D01*
X117648140Y-90571246D01*
X117511767Y-90644138D01*
X117455886Y-90689999D01*
X117422187Y-90717655D01*
X117422184Y-90717658D01*
X117392236Y-90742236D01*
X117367658Y-90772184D01*
X115924843Y-92215000D01*
X115898061Y-92215000D01*
X115698102Y-92254774D01*
X115509744Y-92332795D01*
X115340226Y-92446063D01*
X115196063Y-92590226D01*
X115082795Y-92759744D01*
X115004774Y-92948102D01*
X114980466Y-93070308D01*
X114135000Y-92224843D01*
X114135000Y-92198061D01*
X114095226Y-91998102D01*
X114017205Y-91809744D01*
X113903937Y-91640226D01*
X113759774Y-91496063D01*
X113590256Y-91382795D01*
X113401898Y-91304774D01*
X113201939Y-91265000D01*
X112998061Y-91265000D01*
X112798102Y-91304774D01*
X112609744Y-91382795D01*
X112440226Y-91496063D01*
X112296063Y-91640226D01*
X112182795Y-91809744D01*
X112104774Y-91998102D01*
X112065000Y-92198061D01*
X112065000Y-92401939D01*
X112104774Y-92601898D01*
X112182795Y-92790256D01*
X112296063Y-92959774D01*
X112440226Y-93103937D01*
X112609744Y-93217205D01*
X112798102Y-93295226D01*
X112998061Y-93335000D01*
X113024843Y-93335000D01*
X115617658Y-95927816D01*
X115642236Y-95957764D01*
X115672184Y-95982342D01*
X115672187Y-95982345D01*
X115686942Y-95994454D01*
X115761767Y-96055862D01*
X115898140Y-96128754D01*
X116046113Y-96173641D01*
X116161439Y-96185000D01*
X116161446Y-96185000D01*
X116199999Y-96188797D01*
X116238552Y-96185000D01*
X131441467Y-96185000D01*
X131454774Y-96251898D01*
X131480912Y-96315000D01*
X114375158Y-96315000D01*
X110185000Y-92124843D01*
X110185000Y-92098061D01*
X110145226Y-91898102D01*
X110067205Y-91709744D01*
X109953937Y-91540226D01*
X109809774Y-91396063D01*
X109640256Y-91282795D01*
X109451898Y-91204774D01*
X109251939Y-91165000D01*
X109048061Y-91165000D01*
X108848102Y-91204774D01*
X108659744Y-91282795D01*
X108490226Y-91396063D01*
X108346063Y-91540226D01*
X108232795Y-91709744D01*
X108154774Y-91898102D01*
X108115000Y-92098061D01*
X78324000Y-92098061D01*
X78324000Y-71215999D01*
X82505928Y-71215999D01*
X82505928Y-72456001D01*
X82522992Y-72629255D01*
X82573528Y-72795851D01*
X82655595Y-72949387D01*
X82766038Y-73083962D01*
X82900613Y-73194405D01*
X83054149Y-73276472D01*
X83220745Y-73327008D01*
X83393999Y-73344072D01*
X85094001Y-73344072D01*
X85267255Y-73327008D01*
X85433851Y-73276472D01*
X85587387Y-73194405D01*
X85721962Y-73083962D01*
X85832405Y-72949387D01*
X85914472Y-72795851D01*
X85965008Y-72629255D01*
X85982072Y-72456001D01*
X85982072Y-71215999D01*
X85965008Y-71042745D01*
X85914472Y-70876149D01*
X85832405Y-70722613D01*
X85721962Y-70588038D01*
X85587387Y-70477595D01*
X85478686Y-70419493D01*
X85634536Y-70266494D01*
X85801571Y-70021437D01*
X85917588Y-69748502D01*
X85935302Y-69656031D01*
X85814246Y-69423000D01*
X84371000Y-69423000D01*
X84371000Y-69443000D01*
X84117000Y-69443000D01*
X84117000Y-69423000D01*
X82673754Y-69423000D01*
X82552698Y-69656031D01*
X82570412Y-69748502D01*
X82686429Y-70021437D01*
X82853464Y-70266494D01*
X83009314Y-70419493D01*
X82900613Y-70477595D01*
X82766038Y-70588038D01*
X82655595Y-70722613D01*
X82573528Y-70876149D01*
X82522992Y-71042745D01*
X82505928Y-71215999D01*
X78324000Y-71215999D01*
X78324000Y-68935969D01*
X82552698Y-68935969D01*
X82673754Y-69169000D01*
X84117000Y-69169000D01*
X84117000Y-67945414D01*
X84371000Y-67945414D01*
X84371000Y-69169000D01*
X85814246Y-69169000D01*
X85935302Y-68935969D01*
X85917588Y-68843498D01*
X85801571Y-68570563D01*
X85634536Y-68325506D01*
X85422903Y-68117744D01*
X85174804Y-67955262D01*
X84899773Y-67844304D01*
X84608380Y-67789134D01*
X84371000Y-67945414D01*
X84117000Y-67945414D01*
X83879620Y-67789134D01*
X83588227Y-67844304D01*
X83313196Y-67955262D01*
X83065097Y-68117744D01*
X82853464Y-68325506D01*
X82686429Y-68570563D01*
X82570412Y-68843498D01*
X82552698Y-68935969D01*
X78324000Y-68935969D01*
X78324000Y-65748061D01*
X97715000Y-65748061D01*
X97715000Y-65951939D01*
X97754774Y-66151898D01*
X97832795Y-66340256D01*
X97946063Y-66509774D01*
X98090226Y-66653937D01*
X98259744Y-66767205D01*
X98448102Y-66845226D01*
X98648061Y-66885000D01*
X98674843Y-66885000D01*
X102265000Y-70475158D01*
X102265001Y-83711437D01*
X102261203Y-83750000D01*
X102276359Y-83903886D01*
X102321246Y-84051859D01*
X102321247Y-84051860D01*
X102394139Y-84188233D01*
X102422006Y-84222188D01*
X102467655Y-84277812D01*
X102467659Y-84277816D01*
X102492237Y-84307764D01*
X102522185Y-84332342D01*
X103015000Y-84825157D01*
X103015000Y-84851939D01*
X103054774Y-85051898D01*
X103132795Y-85240256D01*
X103246063Y-85409774D01*
X103390226Y-85553937D01*
X103559744Y-85667205D01*
X103748102Y-85745226D01*
X103948061Y-85785000D01*
X104151939Y-85785000D01*
X104351898Y-85745226D01*
X104540256Y-85667205D01*
X104709774Y-85553937D01*
X104853937Y-85409774D01*
X104967205Y-85240256D01*
X105045226Y-85051898D01*
X105085000Y-84851939D01*
X105085000Y-84648061D01*
X105045226Y-84448102D01*
X104967205Y-84259744D01*
X104853937Y-84090226D01*
X104709774Y-83946063D01*
X104540256Y-83832795D01*
X104351898Y-83754774D01*
X104151939Y-83715000D01*
X104125157Y-83715000D01*
X103835000Y-83424843D01*
X103835000Y-76174869D01*
X103882795Y-76290256D01*
X103996063Y-76459774D01*
X104015001Y-76478712D01*
X104015000Y-79811447D01*
X104011203Y-79850000D01*
X104015000Y-79888553D01*
X104015000Y-79888560D01*
X104026359Y-80003886D01*
X104071246Y-80151859D01*
X104144138Y-80288232D01*
X104242236Y-80407764D01*
X104272190Y-80432347D01*
X105867658Y-82027816D01*
X105892236Y-82057764D01*
X105922184Y-82082342D01*
X105922187Y-82082345D01*
X105951559Y-82106450D01*
X106011767Y-82155862D01*
X106148140Y-82228754D01*
X106261672Y-82263194D01*
X106296112Y-82273641D01*
X106310490Y-82275057D01*
X106411439Y-82285000D01*
X106411446Y-82285000D01*
X106449999Y-82288797D01*
X106488552Y-82285000D01*
X123759158Y-82285000D01*
X126801968Y-85327810D01*
X126826551Y-85357764D01*
X126946082Y-85455862D01*
X127072891Y-85523642D01*
X127082455Y-85528754D01*
X127230428Y-85573642D01*
X127263154Y-85576865D01*
X127290226Y-85603937D01*
X127459744Y-85717205D01*
X127648102Y-85795226D01*
X127848061Y-85835000D01*
X128051939Y-85835000D01*
X128251898Y-85795226D01*
X128440256Y-85717205D01*
X128609774Y-85603937D01*
X128753937Y-85459774D01*
X128867205Y-85290256D01*
X128945226Y-85101898D01*
X128985000Y-84901939D01*
X128985000Y-84698061D01*
X128945226Y-84498102D01*
X128867205Y-84309744D01*
X128753937Y-84140226D01*
X128609774Y-83996063D01*
X128440256Y-83882795D01*
X128251898Y-83804774D01*
X128051939Y-83765000D01*
X127848061Y-83765000D01*
X127648102Y-83804774D01*
X127542845Y-83848373D01*
X124666662Y-80972190D01*
X124642079Y-80942236D01*
X124522548Y-80844138D01*
X124386175Y-80771246D01*
X124238202Y-80726359D01*
X124122876Y-80715000D01*
X124122868Y-80715000D01*
X124084315Y-80711203D01*
X124045762Y-80715000D01*
X106775158Y-80715000D01*
X105585000Y-79524843D01*
X105585000Y-76898061D01*
X127915000Y-76898061D01*
X127915000Y-77101939D01*
X127954774Y-77301898D01*
X128032795Y-77490256D01*
X128146063Y-77659774D01*
X128290226Y-77803937D01*
X128459744Y-77917205D01*
X128648102Y-77995226D01*
X128848061Y-78035000D01*
X128874843Y-78035000D01*
X144015000Y-93175158D01*
X144015000Y-93376260D01*
X144072068Y-93663158D01*
X144184010Y-93933411D01*
X144346525Y-94176632D01*
X144553368Y-94383475D01*
X144727760Y-94500000D01*
X144553368Y-94616525D01*
X144346525Y-94823368D01*
X144184010Y-95066589D01*
X144072068Y-95336842D01*
X144015000Y-95623740D01*
X144015000Y-95916260D01*
X144072068Y-96203158D01*
X144184010Y-96473411D01*
X144346525Y-96716632D01*
X144553368Y-96923475D01*
X144727760Y-97040000D01*
X144553368Y-97156525D01*
X144346525Y-97363368D01*
X144184010Y-97606589D01*
X144072068Y-97876842D01*
X144015000Y-98163740D01*
X144015000Y-98456260D01*
X144072068Y-98743158D01*
X144184010Y-99013411D01*
X144346525Y-99256632D01*
X144478380Y-99388487D01*
X144405820Y-99410498D01*
X144295506Y-99469463D01*
X144198815Y-99548815D01*
X144119463Y-99645506D01*
X144060498Y-99755820D01*
X144024188Y-99875518D01*
X144011928Y-100000000D01*
X144015000Y-100564250D01*
X144173750Y-100723000D01*
X145373000Y-100723000D01*
X145373000Y-100703000D01*
X145627000Y-100703000D01*
X145627000Y-100723000D01*
X146826250Y-100723000D01*
X146985000Y-100564250D01*
X146988072Y-100000000D01*
X146975812Y-99875518D01*
X146939502Y-99755820D01*
X146880537Y-99645506D01*
X146801185Y-99548815D01*
X146704494Y-99469463D01*
X146594180Y-99410498D01*
X146521620Y-99388487D01*
X146653475Y-99256632D01*
X146815990Y-99013411D01*
X146927932Y-98743158D01*
X146985000Y-98456260D01*
X146985000Y-98163740D01*
X146927932Y-97876842D01*
X146815990Y-97606589D01*
X146653475Y-97363368D01*
X146446632Y-97156525D01*
X146272240Y-97040000D01*
X146446632Y-96923475D01*
X146653475Y-96716632D01*
X146815990Y-96473411D01*
X146927932Y-96203158D01*
X146985000Y-95916260D01*
X146985000Y-95623740D01*
X146927932Y-95336842D01*
X146815990Y-95066589D01*
X146653475Y-94823368D01*
X146446632Y-94616525D01*
X146272240Y-94500000D01*
X146446632Y-94383475D01*
X146653475Y-94176632D01*
X146815990Y-93933411D01*
X146927932Y-93663158D01*
X146985000Y-93376260D01*
X146985000Y-93083740D01*
X146927932Y-92796842D01*
X146815990Y-92526589D01*
X146653475Y-92283368D01*
X146446632Y-92076525D01*
X146272240Y-91960000D01*
X146446632Y-91843475D01*
X146653475Y-91636632D01*
X146815990Y-91393411D01*
X146927932Y-91123158D01*
X146985000Y-90836260D01*
X146985000Y-90543740D01*
X146927932Y-90256842D01*
X146815990Y-89986589D01*
X146653475Y-89743368D01*
X146446632Y-89536525D01*
X146203411Y-89374010D01*
X145933158Y-89262068D01*
X145646260Y-89205000D01*
X145353740Y-89205000D01*
X145066842Y-89262068D01*
X144796589Y-89374010D01*
X144729197Y-89419040D01*
X136885124Y-81574967D01*
X138209000Y-81574967D01*
X138209000Y-81897033D01*
X138271832Y-82212912D01*
X138395082Y-82510463D01*
X138574013Y-82778252D01*
X138801748Y-83005987D01*
X139069537Y-83184918D01*
X139367088Y-83308168D01*
X139682967Y-83371000D01*
X140005033Y-83371000D01*
X140320912Y-83308168D01*
X140618463Y-83184918D01*
X140886252Y-83005987D01*
X141113987Y-82778252D01*
X141292918Y-82510463D01*
X141416168Y-82212912D01*
X141479000Y-81897033D01*
X141479000Y-81574967D01*
X141416168Y-81259088D01*
X141292918Y-80961537D01*
X141113987Y-80693748D01*
X140886252Y-80466013D01*
X140618463Y-80287082D01*
X140320912Y-80163832D01*
X140005033Y-80101000D01*
X139682967Y-80101000D01*
X139367088Y-80163832D01*
X139069537Y-80287082D01*
X138801748Y-80466013D01*
X138574013Y-80693748D01*
X138395082Y-80961537D01*
X138271832Y-81259088D01*
X138209000Y-81574967D01*
X136885124Y-81574967D01*
X132385124Y-77074967D01*
X138209000Y-77074967D01*
X138209000Y-77397033D01*
X138271832Y-77712912D01*
X138395082Y-78010463D01*
X138574013Y-78278252D01*
X138801748Y-78505987D01*
X139069537Y-78684918D01*
X139367088Y-78808168D01*
X139682967Y-78871000D01*
X140005033Y-78871000D01*
X140320912Y-78808168D01*
X140618463Y-78684918D01*
X140886252Y-78505987D01*
X141113987Y-78278252D01*
X141285877Y-78021000D01*
X144902123Y-78021000D01*
X145074013Y-78278252D01*
X145301748Y-78505987D01*
X145569537Y-78684918D01*
X145867088Y-78808168D01*
X146182967Y-78871000D01*
X146505033Y-78871000D01*
X146808483Y-78810640D01*
X147415001Y-79417159D01*
X147415001Y-80494762D01*
X147386252Y-80466013D01*
X147118463Y-80287082D01*
X146820912Y-80163832D01*
X146505033Y-80101000D01*
X146182967Y-80101000D01*
X145867088Y-80163832D01*
X145569537Y-80287082D01*
X145301748Y-80466013D01*
X145074013Y-80693748D01*
X144895082Y-80961537D01*
X144771832Y-81259088D01*
X144709000Y-81574967D01*
X144709000Y-81897033D01*
X144771832Y-82212912D01*
X144895082Y-82510463D01*
X145074013Y-82778252D01*
X145301748Y-83005987D01*
X145569537Y-83184918D01*
X145867088Y-83308168D01*
X146182967Y-83371000D01*
X146505033Y-83371000D01*
X146820912Y-83308168D01*
X147118463Y-83184918D01*
X147386252Y-83005987D01*
X147415001Y-82977238D01*
X147415000Y-103424844D01*
X147374843Y-103465000D01*
X144278711Y-103465000D01*
X144259774Y-103446063D01*
X144090256Y-103332795D01*
X143901898Y-103254774D01*
X143701939Y-103215000D01*
X143498061Y-103215000D01*
X143298102Y-103254774D01*
X143109744Y-103332795D01*
X142940226Y-103446063D01*
X142796063Y-103590226D01*
X142682795Y-103759744D01*
X142604774Y-103948102D01*
X142565000Y-104148061D01*
X142565000Y-104351939D01*
X142604774Y-104551898D01*
X142682795Y-104740256D01*
X142796063Y-104909774D01*
X142940226Y-105053937D01*
X143109744Y-105167205D01*
X143298102Y-105245226D01*
X143498061Y-105285000D01*
X143701939Y-105285000D01*
X143901898Y-105245226D01*
X144090256Y-105167205D01*
X144259774Y-105053937D01*
X144278711Y-105035000D01*
X147661447Y-105035000D01*
X147700000Y-105038797D01*
X147738553Y-105035000D01*
X147738561Y-105035000D01*
X147853887Y-105023641D01*
X148001860Y-104978754D01*
X148138233Y-104905862D01*
X148257764Y-104807764D01*
X148282347Y-104777810D01*
X148727806Y-104332350D01*
X148757764Y-104307764D01*
X148855862Y-104188233D01*
X148928754Y-104051860D01*
X148960217Y-103948141D01*
X148973642Y-103903887D01*
X148984637Y-103792246D01*
X148985000Y-103788561D01*
X148985000Y-103788556D01*
X148988797Y-103750000D01*
X148985000Y-103711444D01*
X148985000Y-79130552D01*
X148988797Y-79091999D01*
X148985000Y-79053446D01*
X148985000Y-79053439D01*
X148973641Y-78938113D01*
X148928754Y-78790140D01*
X148855862Y-78653767D01*
X148757764Y-78534236D01*
X148727816Y-78509658D01*
X147918640Y-77700483D01*
X147979000Y-77397033D01*
X147979000Y-77074967D01*
X147916168Y-76759088D01*
X147792918Y-76461537D01*
X147613987Y-76193748D01*
X147386252Y-75966013D01*
X147118463Y-75787082D01*
X146820912Y-75663832D01*
X146505033Y-75601000D01*
X146182967Y-75601000D01*
X145867088Y-75663832D01*
X145569537Y-75787082D01*
X145301748Y-75966013D01*
X145074013Y-76193748D01*
X144902123Y-76451000D01*
X141285877Y-76451000D01*
X141113987Y-76193748D01*
X140886252Y-75966013D01*
X140618463Y-75787082D01*
X140320912Y-75663832D01*
X140005033Y-75601000D01*
X139682967Y-75601000D01*
X139367088Y-75663832D01*
X139069537Y-75787082D01*
X138801748Y-75966013D01*
X138574013Y-76193748D01*
X138395082Y-76461537D01*
X138271832Y-76759088D01*
X138209000Y-77074967D01*
X132385124Y-77074967D01*
X131735000Y-76424843D01*
X131735000Y-76398061D01*
X131695226Y-76198102D01*
X131617205Y-76009744D01*
X131503937Y-75840226D01*
X131361772Y-75698061D01*
X132415000Y-75698061D01*
X132415000Y-75901939D01*
X132454774Y-76101898D01*
X132532795Y-76290256D01*
X132646063Y-76459774D01*
X132790226Y-76603937D01*
X132959744Y-76717205D01*
X133148102Y-76795226D01*
X133348061Y-76835000D01*
X133551939Y-76835000D01*
X133751898Y-76795226D01*
X133940256Y-76717205D01*
X134109774Y-76603937D01*
X134253937Y-76459774D01*
X134367205Y-76290256D01*
X134445226Y-76101898D01*
X134485000Y-75901939D01*
X134485000Y-75875157D01*
X136888744Y-73471413D01*
X139088192Y-73471413D01*
X139183956Y-73735814D01*
X139473571Y-73876704D01*
X139785108Y-73958384D01*
X140106595Y-73977718D01*
X140425675Y-73933961D01*
X140730088Y-73828795D01*
X140904044Y-73735814D01*
X140999808Y-73471413D01*
X145588192Y-73471413D01*
X145683956Y-73735814D01*
X145973571Y-73876704D01*
X146285108Y-73958384D01*
X146606595Y-73977718D01*
X146925675Y-73933961D01*
X147230088Y-73828795D01*
X147404044Y-73735814D01*
X147499808Y-73471413D01*
X146544000Y-72515605D01*
X145588192Y-73471413D01*
X140999808Y-73471413D01*
X140044000Y-72515605D01*
X139088192Y-73471413D01*
X136888744Y-73471413D01*
X138470856Y-71889302D01*
X138421616Y-72077108D01*
X138402282Y-72398595D01*
X138446039Y-72717675D01*
X138551205Y-73022088D01*
X138644186Y-73196044D01*
X138908587Y-73291808D01*
X139864395Y-72336000D01*
X140223605Y-72336000D01*
X141179413Y-73291808D01*
X141443814Y-73196044D01*
X141584704Y-72906429D01*
X141666384Y-72594892D01*
X141678189Y-72398595D01*
X144902282Y-72398595D01*
X144946039Y-72717675D01*
X145051205Y-73022088D01*
X145144186Y-73196044D01*
X145408587Y-73291808D01*
X146364395Y-72336000D01*
X146723605Y-72336000D01*
X147679413Y-73291808D01*
X147943814Y-73196044D01*
X148084704Y-72906429D01*
X148166384Y-72594892D01*
X148185718Y-72273405D01*
X148141961Y-71954325D01*
X148036795Y-71649912D01*
X147943814Y-71475956D01*
X147679413Y-71380192D01*
X146723605Y-72336000D01*
X146364395Y-72336000D01*
X145408587Y-71380192D01*
X145144186Y-71475956D01*
X145003296Y-71765571D01*
X144921616Y-72077108D01*
X144902282Y-72398595D01*
X141678189Y-72398595D01*
X141685718Y-72273405D01*
X141641961Y-71954325D01*
X141536795Y-71649912D01*
X141443814Y-71475956D01*
X141179413Y-71380192D01*
X140223605Y-72336000D01*
X139864395Y-72336000D01*
X139850253Y-72321858D01*
X140029858Y-72142253D01*
X140044000Y-72156395D01*
X140999808Y-71200587D01*
X145588192Y-71200587D01*
X146544000Y-72156395D01*
X147499808Y-71200587D01*
X147404044Y-70936186D01*
X147114429Y-70795296D01*
X146802892Y-70713616D01*
X146481405Y-70694282D01*
X146162325Y-70738039D01*
X145857912Y-70843205D01*
X145683956Y-70936186D01*
X145588192Y-71200587D01*
X140999808Y-71200587D01*
X140904044Y-70936186D01*
X140614429Y-70795296D01*
X140302892Y-70713616D01*
X139981405Y-70694282D01*
X139662325Y-70738039D01*
X139600897Y-70759261D01*
X140571817Y-69788341D01*
X140601764Y-69763764D01*
X140644438Y-69711767D01*
X140690179Y-69656031D01*
X140699862Y-69644233D01*
X140772754Y-69507860D01*
X140817641Y-69359887D01*
X140825487Y-69280224D01*
X141086252Y-69105987D01*
X141313987Y-68878252D01*
X141492918Y-68610463D01*
X141616168Y-68312912D01*
X141679000Y-67997033D01*
X141679000Y-67674967D01*
X144909000Y-67674967D01*
X144909000Y-67997033D01*
X144971832Y-68312912D01*
X145095082Y-68610463D01*
X145274013Y-68878252D01*
X145501748Y-69105987D01*
X145769537Y-69284918D01*
X146067088Y-69408168D01*
X146382967Y-69471000D01*
X146705033Y-69471000D01*
X147020912Y-69408168D01*
X147318463Y-69284918D01*
X147586252Y-69105987D01*
X147813987Y-68878252D01*
X147992918Y-68610463D01*
X148116168Y-68312912D01*
X148179000Y-67997033D01*
X148179000Y-67674967D01*
X148116168Y-67359088D01*
X147992918Y-67061537D01*
X147813987Y-66793748D01*
X147586252Y-66566013D01*
X147318463Y-66387082D01*
X147020912Y-66263832D01*
X146705033Y-66201000D01*
X146382967Y-66201000D01*
X146067088Y-66263832D01*
X145769537Y-66387082D01*
X145501748Y-66566013D01*
X145274013Y-66793748D01*
X145095082Y-67061537D01*
X144971832Y-67359088D01*
X144909000Y-67674967D01*
X141679000Y-67674967D01*
X141616168Y-67359088D01*
X141492918Y-67061537D01*
X141313987Y-66793748D01*
X141086252Y-66566013D01*
X140818463Y-66387082D01*
X140520912Y-66263832D01*
X140205033Y-66201000D01*
X139882967Y-66201000D01*
X139567088Y-66263832D01*
X139269537Y-66387082D01*
X139001748Y-66566013D01*
X138774013Y-66793748D01*
X138595082Y-67061537D01*
X138471832Y-67359088D01*
X138409000Y-67674967D01*
X138409000Y-67997033D01*
X138471832Y-68312912D01*
X138595082Y-68610463D01*
X138774013Y-68878252D01*
X139001748Y-69105987D01*
X139020995Y-69118847D01*
X133374843Y-74765000D01*
X133348061Y-74765000D01*
X133148102Y-74804774D01*
X132959744Y-74882795D01*
X132790226Y-74996063D01*
X132646063Y-75140226D01*
X132532795Y-75309744D01*
X132454774Y-75498102D01*
X132415000Y-75698061D01*
X131361772Y-75698061D01*
X131359774Y-75696063D01*
X131190256Y-75582795D01*
X131001898Y-75504774D01*
X130801939Y-75465000D01*
X130598061Y-75465000D01*
X130398102Y-75504774D01*
X130209744Y-75582795D01*
X130040226Y-75696063D01*
X129896063Y-75840226D01*
X129782795Y-76009744D01*
X129704774Y-76198102D01*
X129689351Y-76275640D01*
X129609774Y-76196063D01*
X129440256Y-76082795D01*
X129251898Y-76004774D01*
X129051939Y-75965000D01*
X128848061Y-75965000D01*
X128648102Y-76004774D01*
X128459744Y-76082795D01*
X128290226Y-76196063D01*
X128146063Y-76340226D01*
X128032795Y-76509744D01*
X127954774Y-76698102D01*
X127915000Y-76898061D01*
X105585000Y-76898061D01*
X105585000Y-76478711D01*
X105603937Y-76459774D01*
X105717205Y-76290256D01*
X105795226Y-76101898D01*
X105835000Y-75901939D01*
X105835000Y-75698061D01*
X105795226Y-75498102D01*
X105717205Y-75309744D01*
X105603937Y-75140226D01*
X105459774Y-74996063D01*
X105290256Y-74882795D01*
X105101898Y-74804774D01*
X104901939Y-74765000D01*
X104698061Y-74765000D01*
X104498102Y-74804774D01*
X104309744Y-74882795D01*
X104140226Y-74996063D01*
X103996063Y-75140226D01*
X103882795Y-75309744D01*
X103835000Y-75425131D01*
X103835000Y-70188552D01*
X103838797Y-70149999D01*
X103835000Y-70111446D01*
X103835000Y-70111439D01*
X103823641Y-69996113D01*
X103778754Y-69848140D01*
X103705862Y-69711767D01*
X103656450Y-69651559D01*
X103632345Y-69622187D01*
X103632342Y-69622184D01*
X103607764Y-69592236D01*
X103577817Y-69567659D01*
X99785000Y-65774843D01*
X99785000Y-65748061D01*
X99745226Y-65548102D01*
X99667205Y-65359744D01*
X99553937Y-65190226D01*
X99409774Y-65046063D01*
X99240256Y-64932795D01*
X99051898Y-64854774D01*
X98851939Y-64815000D01*
X98648061Y-64815000D01*
X98448102Y-64854774D01*
X98259744Y-64932795D01*
X98090226Y-65046063D01*
X97946063Y-65190226D01*
X97832795Y-65359744D01*
X97754774Y-65548102D01*
X97715000Y-65748061D01*
X78324000Y-65748061D01*
X78324000Y-57870777D01*
X79115000Y-57870777D01*
X79115000Y-58429223D01*
X79223948Y-58976939D01*
X79437656Y-59492876D01*
X79747912Y-59957207D01*
X80142793Y-60352088D01*
X80607124Y-60662344D01*
X81123061Y-60876052D01*
X81670777Y-60985000D01*
X82229223Y-60985000D01*
X82776939Y-60876052D01*
X83292876Y-60662344D01*
X83757207Y-60352088D01*
X84152088Y-59957207D01*
X84462344Y-59492876D01*
X84676052Y-58976939D01*
X84785000Y-58429223D01*
X84785000Y-58170777D01*
X144115000Y-58170777D01*
X144115000Y-58729223D01*
X144223948Y-59276939D01*
X144437656Y-59792876D01*
X144747912Y-60257207D01*
X145142793Y-60652088D01*
X145607124Y-60962344D01*
X146123061Y-61176052D01*
X146670777Y-61285000D01*
X147229223Y-61285000D01*
X147776939Y-61176052D01*
X148292876Y-60962344D01*
X148757207Y-60652088D01*
X149152088Y-60257207D01*
X149462344Y-59792876D01*
X149676052Y-59276939D01*
X149785000Y-58729223D01*
X149785000Y-58170777D01*
X149676052Y-57623061D01*
X149462344Y-57107124D01*
X149152088Y-56642793D01*
X148757207Y-56247912D01*
X148292876Y-55937656D01*
X147776939Y-55723948D01*
X147229223Y-55615000D01*
X146670777Y-55615000D01*
X146123061Y-55723948D01*
X145607124Y-55937656D01*
X145142793Y-56247912D01*
X144747912Y-56642793D01*
X144437656Y-57107124D01*
X144223948Y-57623061D01*
X144115000Y-58170777D01*
X84785000Y-58170777D01*
X84785000Y-57870777D01*
X84676052Y-57323061D01*
X84462344Y-56807124D01*
X84152088Y-56342793D01*
X83757207Y-55947912D01*
X83292876Y-55637656D01*
X82776939Y-55423948D01*
X82229223Y-55315000D01*
X81670777Y-55315000D01*
X81123061Y-55423948D01*
X80607124Y-55637656D01*
X80142793Y-55947912D01*
X79747912Y-56342793D01*
X79437656Y-56807124D01*
X79223948Y-57323061D01*
X79115000Y-57870777D01*
X78324000Y-57870777D01*
X78324000Y-54516000D01*
X150473000Y-54516000D01*
X150473000Y-139273000D01*
M02*
